<svg width="269" height="163" viewBox="0 0 269 163" fill="none" xmlns="http://www.w3.org/2000/svg">
<path d="M6.4054 92.8077V53.7016C6.4054 52.8431 6.69856 52.1206 7.28489 51.5343C7.87122 50.948 8.57272 50.6548 9.3894 50.6548H26.9479C36.036 50.6548 42.6427 52.4766 46.7679 56.1202C50.9141 59.7429 52.9872 65.4387 52.9872 73.2075C52.9872 80.9555 50.9141 86.6408 46.7679 90.2635C42.6427 93.8861 36.036 95.6975 26.9479 95.6975H9.3894C8.57272 95.6975 7.87122 95.4253 7.28489 94.8808C6.69856 94.3154 6.4054 93.6244 6.4054 92.8077ZM18.2472 86.8083H26.6024C32.2353 86.8083 36.0674 85.7822 38.0986 83.7301C40.1298 81.6779 41.1454 78.1704 41.1454 73.2075C41.1454 68.2237 40.1298 64.7058 38.0986 62.6536C36.0674 60.5805 32.2353 59.544 26.6024 59.544H18.2472V86.8083Z" fill="url(#paint0_linear)"/>
<path d="M55.7199 92.8077L63.604 62.9049C65.7399 54.7591 72.6921 50.6757 84.4606 50.6548H101.391C102.166 50.6548 102.804 50.948 103.307 51.5343C103.83 52.1206 104.092 52.8012 104.092 53.576V92.8077C104.092 93.6244 103.799 94.3154 103.213 94.8808C102.626 95.4253 101.925 95.6975 101.108 95.6975H95.203C94.3444 95.6975 93.6324 95.4253 93.067 94.8808C92.5226 94.3154 92.2504 93.6035 92.2504 92.7449V84.8294H69.9175L67.813 92.7449C67.6036 93.6035 67.1324 94.3154 66.3995 94.8808C65.6666 95.4253 64.8918 95.6975 64.0751 95.6975H57.8873C57.0706 95.6975 56.4843 95.4671 56.1283 95.0065C55.7723 94.5248 55.5943 94.106 55.5943 93.75C55.6152 93.3941 55.6571 93.0799 55.7199 92.8077ZM72.2419 75.9403H92.2504V59.544H83.2984C81.2881 59.544 79.5291 60.1198 78.0214 61.2715C76.5346 62.4023 75.5295 63.931 75.006 65.8575L72.2419 75.9403Z" fill="url(#paint1_linear)"/>
<path d="M113.076 92.7449V53.6388C113.076 52.8221 113.358 52.1206 113.924 51.5343C114.489 50.948 115.18 50.6548 115.997 50.6548H125.231C125.964 50.6548 126.739 50.948 127.556 51.5343C128.372 52.1206 129.043 52.8221 129.566 53.6388L148.538 82.8192V53.576C148.538 52.7593 148.821 52.0683 149.386 51.5029C149.972 50.9375 150.674 50.6548 151.491 50.6548H156.893C157.71 50.6548 158.401 50.9375 158.966 51.5029C159.553 52.0683 159.846 52.7802 159.846 53.6388V92.7449C159.846 93.5616 159.553 94.2631 158.966 94.8494C158.401 95.4148 157.71 95.6975 156.893 95.6975H146.465C145.648 95.6975 144.811 95.4148 143.952 94.8494C143.094 94.2631 142.413 93.5616 141.91 92.7449L124.54 65.7947V92.7449C124.54 93.5616 124.247 94.2631 123.661 94.8494C123.096 95.4148 122.404 95.6975 121.588 95.6975H116.06C115.243 95.6975 114.541 95.4148 113.955 94.8494C113.369 94.2631 113.076 93.5616 113.076 92.7449Z" fill="url(#paint2_linear)"/>
<path d="M172.096 90.3891C168.222 86.6827 166.285 80.9555 166.285 73.2075C166.285 65.4387 168.222 59.701 172.096 55.9946C175.991 52.2672 181.823 50.4035 189.592 50.4035H196.596C201.35 50.4035 205.548 51.639 209.192 54.1099C212.856 56.5809 214.689 59.9628 214.689 64.2555C214.689 65.491 214.322 66.381 213.589 66.9254C212.856 67.449 212.144 67.7107 211.453 67.7107H207.715C205.789 67.7107 204.292 66.559 203.224 64.2555C201.674 60.947 199.099 59.2927 195.497 59.2927H189.906C185.32 59.2927 182.21 60.2769 180.577 62.2453C178.943 64.2137 178.127 67.8573 178.127 73.1761C178.127 78.495 178.943 82.1491 180.577 84.1384C182.21 86.1068 185.32 87.091 189.906 87.091H196.156C199.758 87.091 202.323 85.4367 203.852 82.1281C204.92 79.8038 206.428 78.6416 208.375 78.6416H212.113C213.097 78.6416 213.872 79.008 214.437 79.7409C215.024 80.4739 215.317 81.2696 215.317 82.1281C215.317 86.4209 213.495 89.8028 209.851 92.2737C206.208 94.7238 202.009 95.9488 197.256 95.9488H189.592C181.823 95.9488 175.991 94.0956 172.096 90.3891Z" fill="url(#paint3_linear)"/>
<path d="M221.442 92.6821V53.576C221.442 52.7593 221.735 52.0683 222.321 51.5029C222.908 50.9375 223.609 50.6548 224.426 50.6548H260.642C261.459 50.6548 262.15 50.948 262.715 51.5343C263.302 52.1206 263.595 52.8221 263.595 53.6388V56.5914C263.595 57.4081 263.302 58.1096 262.715 58.6959C262.15 59.2613 261.459 59.544 260.642 59.544H233.284V68.6844H256.842C257.658 68.6844 258.349 68.9776 258.915 69.5639C259.501 70.1293 259.794 70.8203 259.794 71.637V74.5896C259.794 75.4063 259.501 76.1078 258.915 76.6941C258.349 77.2595 257.658 77.5422 256.842 77.5422H233.284V86.8083H260.579C261.375 86.8083 262.056 87.091 262.621 87.6564C263.186 88.2218 263.469 88.9128 263.469 89.7295V92.7449C263.469 93.5616 263.176 94.2631 262.59 94.8494C262.003 95.4148 261.302 95.6975 260.485 95.6975H224.426C223.609 95.6975 222.908 95.4148 222.321 94.8494C221.735 94.2631 221.442 93.5406 221.442 92.6821Z" fill="url(#paint4_linear)"/>
<path d="M104.909 155.377C100.637 159.126 94.3548 161 86.0625 161C77.791 161 71.5089 159.126 67.2161 155.377C62.9234 151.608 60.777 145.651 60.777 137.505C60.777 129.359 62.9234 123.412 67.2161 119.664C71.5089 115.915 77.791 114.041 86.0625 114.041C94.3548 114.041 100.637 115.915 104.909 119.664C109.202 123.412 111.348 129.359 111.348 137.505C111.348 145.651 109.202 151.608 104.909 155.377ZM96.3337 126.291C94.2187 123.778 90.795 122.522 86.0625 122.522C81.3509 122.522 77.9271 123.778 75.7912 126.291C73.6762 128.804 72.6187 132.553 72.6187 137.536C72.6187 142.499 73.6762 146.237 75.7912 148.75C77.9271 151.242 81.3509 152.488 86.0625 152.488C90.795 152.488 94.2187 151.242 96.3337 148.75C98.4487 146.237 99.5062 142.499 99.5062 137.536C99.5062 132.553 98.4487 128.804 96.3337 126.291Z" fill="url(#paint5_linear)"/>
<path d="M117.819 157.011V117.905C117.819 117.088 118.112 116.397 118.698 115.832C119.284 115.266 119.986 114.984 120.803 114.984H157.019C157.836 114.984 158.527 115.277 159.092 115.863C159.678 116.449 159.971 117.151 159.971 117.968V120.92C159.971 121.737 159.678 122.438 159.092 123.025C158.527 123.59 157.836 123.873 157.019 123.873H129.66V134.929H151.93C152.747 134.929 153.438 135.222 154.003 135.809C154.59 136.395 154.883 137.086 154.883 137.882V140.866C154.883 141.682 154.59 142.384 154.003 142.97C153.438 143.536 152.747 143.818 151.93 143.818H129.66V157.011C129.66 157.869 129.367 158.592 128.781 159.178C128.215 159.744 127.524 160.026 126.708 160.026H120.803C119.986 160.026 119.284 159.744 118.698 159.178C118.112 158.592 117.819 157.869 117.819 157.011Z" fill="url(#paint6_linear)"/>
<path d="M165.123 157.011V117.905C165.123 117.088 165.416 116.397 166.002 115.832C166.589 115.266 167.29 114.984 168.107 114.984H204.323C205.14 114.984 205.831 115.277 206.396 115.863C206.983 116.449 207.276 117.151 207.276 117.968V120.92C207.276 121.737 206.983 122.438 206.396 123.025C205.831 123.59 205.14 123.873 204.323 123.873H176.965V134.929H199.235C200.051 134.929 200.742 135.222 201.308 135.809C201.894 136.395 202.187 137.086 202.187 137.882V140.866C202.187 141.682 201.894 142.384 201.308 142.97C200.742 143.536 200.051 143.818 199.235 143.818H176.965V157.011C176.965 157.869 176.671 158.592 176.085 159.178C175.52 159.744 174.829 160.026 174.012 160.026H168.107C167.29 160.026 166.589 159.744 166.002 159.178C165.416 158.592 165.123 157.869 165.123 157.011Z" fill="url(#paint7_linear)"/>
<mask id="path-3-outside-1" maskUnits="userSpaceOnUse" x="4.4054" y="48.4035" width="262" height="50" fill="black">
<rect fill="white" x="4.4054" y="48.4035" width="262" height="50"/>
<path d="M6.4054 92.8077V53.7016C6.4054 52.8431 6.69856 52.1206 7.28489 51.5343C7.87122 50.948 8.57272 50.6548 9.3894 50.6548H26.9479C36.036 50.6548 42.6427 52.4766 46.7679 56.1202C50.9141 59.7429 52.9872 65.4387 52.9872 73.2075C52.9872 80.9555 50.9141 86.6408 46.7679 90.2635C42.6427 93.8861 36.036 95.6975 26.9479 95.6975H9.3894C8.57272 95.6975 7.87122 95.4253 7.28489 94.8808C6.69856 94.3154 6.4054 93.6244 6.4054 92.8077ZM18.2472 86.8083H26.6024C32.2353 86.8083 36.0674 85.7822 38.0986 83.7301C40.1298 81.6779 41.1454 78.1704 41.1454 73.2075C41.1454 68.2237 40.1298 64.7058 38.0986 62.6536C36.0674 60.5805 32.2353 59.544 26.6024 59.544H18.2472V86.8083Z"/>
<path d="M55.7199 92.8077L63.604 62.9049C65.7399 54.7591 72.6921 50.6757 84.4606 50.6548H101.391C102.166 50.6548 102.804 50.948 103.307 51.5343C103.83 52.1206 104.092 52.8012 104.092 53.576V92.8077C104.092 93.6244 103.799 94.3154 103.213 94.8808C102.626 95.4253 101.925 95.6975 101.108 95.6975H95.203C94.3444 95.6975 93.6324 95.4253 93.067 94.8808C92.5226 94.3154 92.2504 93.6035 92.2504 92.7449V84.8294H69.9175L67.813 92.7449C67.6036 93.6035 67.1324 94.3154 66.3995 94.8808C65.6666 95.4253 64.8918 95.6975 64.0751 95.6975H57.8873C57.0706 95.6975 56.4843 95.4671 56.1283 95.0065C55.7723 94.5248 55.5943 94.106 55.5943 93.75C55.6152 93.3941 55.6571 93.0799 55.7199 92.8077ZM72.2419 75.9403H92.2504V59.544H83.2984C81.2881 59.544 79.5291 60.1198 78.0214 61.2715C76.5346 62.4023 75.5295 63.931 75.006 65.8575L72.2419 75.9403Z"/>
<path d="M113.076 92.7449V53.6388C113.076 52.8221 113.358 52.1206 113.924 51.5343C114.489 50.948 115.18 50.6548 115.997 50.6548H125.231C125.964 50.6548 126.739 50.948 127.556 51.5343C128.372 52.1206 129.043 52.8221 129.566 53.6388L148.538 82.8192V53.576C148.538 52.7593 148.821 52.0683 149.386 51.5029C149.972 50.9375 150.674 50.6548 151.491 50.6548H156.893C157.71 50.6548 158.401 50.9375 158.966 51.5029C159.553 52.0683 159.846 52.7802 159.846 53.6388V92.7449C159.846 93.5616 159.553 94.2631 158.966 94.8494C158.401 95.4148 157.71 95.6975 156.893 95.6975H146.465C145.648 95.6975 144.811 95.4148 143.952 94.8494C143.094 94.2631 142.413 93.5616 141.91 92.7449L124.54 65.7947V92.7449C124.54 93.5616 124.247 94.2631 123.661 94.8494C123.096 95.4148 122.404 95.6975 121.588 95.6975H116.06C115.243 95.6975 114.541 95.4148 113.955 94.8494C113.369 94.2631 113.076 93.5616 113.076 92.7449Z"/>
<path d="M172.096 90.3891C168.222 86.6827 166.285 80.9555 166.285 73.2075C166.285 65.4387 168.222 59.701 172.096 55.9946C175.991 52.2672 181.823 50.4035 189.592 50.4035H196.596C201.35 50.4035 205.548 51.639 209.192 54.1099C212.856 56.5809 214.689 59.9628 214.689 64.2555C214.689 65.491 214.322 66.381 213.589 66.9254C212.856 67.449 212.144 67.7107 211.453 67.7107H207.715C205.789 67.7107 204.292 66.559 203.224 64.2555C201.674 60.947 199.099 59.2927 195.497 59.2927H189.906C185.32 59.2927 182.21 60.2769 180.577 62.2453C178.943 64.2137 178.127 67.8573 178.127 73.1761C178.127 78.495 178.943 82.1491 180.577 84.1384C182.21 86.1068 185.32 87.091 189.906 87.091H196.156C199.758 87.091 202.323 85.4367 203.852 82.1281C204.92 79.8038 206.428 78.6416 208.375 78.6416H212.113C213.097 78.6416 213.872 79.008 214.437 79.7409C215.024 80.4739 215.317 81.2696 215.317 82.1281C215.317 86.4209 213.495 89.8028 209.851 92.2737C206.208 94.7238 202.009 95.9488 197.256 95.9488H189.592C181.823 95.9488 175.991 94.0956 172.096 90.3891Z"/>
<path d="M221.442 92.6821V53.576C221.442 52.7593 221.735 52.0683 222.321 51.5029C222.908 50.9375 223.609 50.6548 224.426 50.6548H260.642C261.459 50.6548 262.15 50.948 262.715 51.5343C263.302 52.1206 263.595 52.8221 263.595 53.6388V56.5914C263.595 57.4081 263.302 58.1096 262.715 58.6959C262.15 59.2613 261.459 59.544 260.642 59.544H233.284V68.6844H256.842C257.658 68.6844 258.349 68.9776 258.915 69.5639C259.501 70.1293 259.794 70.8203 259.794 71.637V74.5896C259.794 75.4063 259.501 76.1078 258.915 76.6941C258.349 77.2595 257.658 77.5422 256.842 77.5422H233.284V86.8083H260.579C261.375 86.8083 262.056 87.091 262.621 87.6564C263.186 88.2218 263.469 88.9128 263.469 89.7295V92.7449C263.469 93.5616 263.176 94.2631 262.59 94.8494C262.003 95.4148 261.302 95.6975 260.485 95.6975H224.426C223.609 95.6975 222.908 95.4148 222.321 94.8494C221.735 94.2631 221.442 93.5406 221.442 92.6821Z"/>
</mask>
<path d="M6.4054 92.8077V53.7016C6.4054 52.8431 6.69856 52.1206 7.28489 51.5343C7.87122 50.948 8.57272 50.6548 9.3894 50.6548H26.9479C36.036 50.6548 42.6427 52.4766 46.7679 56.1202C50.9141 59.7429 52.9872 65.4387 52.9872 73.2075C52.9872 80.9555 50.9141 86.6408 46.7679 90.2635C42.6427 93.8861 36.036 95.6975 26.9479 95.6975H9.3894C8.57272 95.6975 7.87122 95.4253 7.28489 94.8808C6.69856 94.3154 6.4054 93.6244 6.4054 92.8077ZM18.2472 86.8083H26.6024C32.2353 86.8083 36.0674 85.7822 38.0986 83.7301C40.1298 81.6779 41.1454 78.1704 41.1454 73.2075C41.1454 68.2237 40.1298 64.7058 38.0986 62.6536C36.0674 60.5805 32.2353 59.544 26.6024 59.544H18.2472V86.8083Z" stroke="url(#paint8_linear)" stroke-width="4" mask="url(#path-3-outside-1)"/>
<path d="M55.7199 92.8077L63.604 62.9049C65.7399 54.7591 72.6921 50.6757 84.4606 50.6548H101.391C102.166 50.6548 102.804 50.948 103.307 51.5343C103.83 52.1206 104.092 52.8012 104.092 53.576V92.8077C104.092 93.6244 103.799 94.3154 103.213 94.8808C102.626 95.4253 101.925 95.6975 101.108 95.6975H95.203C94.3444 95.6975 93.6324 95.4253 93.067 94.8808C92.5226 94.3154 92.2504 93.6035 92.2504 92.7449V84.8294H69.9175L67.813 92.7449C67.6036 93.6035 67.1324 94.3154 66.3995 94.8808C65.6666 95.4253 64.8918 95.6975 64.0751 95.6975H57.8873C57.0706 95.6975 56.4843 95.4671 56.1283 95.0065C55.7723 94.5248 55.5943 94.106 55.5943 93.75C55.6152 93.3941 55.6571 93.0799 55.7199 92.8077ZM72.2419 75.9403H92.2504V59.544H83.2984C81.2881 59.544 79.5291 60.1198 78.0214 61.2715C76.5346 62.4023 75.5295 63.931 75.006 65.8575L72.2419 75.9403Z" stroke="url(#paint9_linear)" stroke-width="4" mask="url(#path-3-outside-1)"/>
<path d="M113.076 92.7449V53.6388C113.076 52.8221 113.358 52.1206 113.924 51.5343C114.489 50.948 115.18 50.6548 115.997 50.6548H125.231C125.964 50.6548 126.739 50.948 127.556 51.5343C128.372 52.1206 129.043 52.8221 129.566 53.6388L148.538 82.8192V53.576C148.538 52.7593 148.821 52.0683 149.386 51.5029C149.972 50.9375 150.674 50.6548 151.491 50.6548H156.893C157.71 50.6548 158.401 50.9375 158.966 51.5029C159.553 52.0683 159.846 52.7802 159.846 53.6388V92.7449C159.846 93.5616 159.553 94.2631 158.966 94.8494C158.401 95.4148 157.71 95.6975 156.893 95.6975H146.465C145.648 95.6975 144.811 95.4148 143.952 94.8494C143.094 94.2631 142.413 93.5616 141.91 92.7449L124.54 65.7947V92.7449C124.54 93.5616 124.247 94.2631 123.661 94.8494C123.096 95.4148 122.404 95.6975 121.588 95.6975H116.06C115.243 95.6975 114.541 95.4148 113.955 94.8494C113.369 94.2631 113.076 93.5616 113.076 92.7449Z" stroke="url(#paint10_linear)" stroke-width="4" mask="url(#path-3-outside-1)"/>
<path d="M172.096 90.3891C168.222 86.6827 166.285 80.9555 166.285 73.2075C166.285 65.4387 168.222 59.701 172.096 55.9946C175.991 52.2672 181.823 50.4035 189.592 50.4035H196.596C201.35 50.4035 205.548 51.639 209.192 54.1099C212.856 56.5809 214.689 59.9628 214.689 64.2555C214.689 65.491 214.322 66.381 213.589 66.9254C212.856 67.449 212.144 67.7107 211.453 67.7107H207.715C205.789 67.7107 204.292 66.559 203.224 64.2555C201.674 60.947 199.099 59.2927 195.497 59.2927H189.906C185.32 59.2927 182.21 60.2769 180.577 62.2453C178.943 64.2137 178.127 67.8573 178.127 73.1761C178.127 78.495 178.943 82.1491 180.577 84.1384C182.21 86.1068 185.32 87.091 189.906 87.091H196.156C199.758 87.091 202.323 85.4367 203.852 82.1281C204.92 79.8038 206.428 78.6416 208.375 78.6416H212.113C213.097 78.6416 213.872 79.008 214.437 79.7409C215.024 80.4739 215.317 81.2696 215.317 82.1281C215.317 86.4209 213.495 89.8028 209.851 92.2737C206.208 94.7238 202.009 95.9488 197.256 95.9488H189.592C181.823 95.9488 175.991 94.0956 172.096 90.3891Z" stroke="url(#paint11_linear)" stroke-width="4" mask="url(#path-3-outside-1)"/>
<path d="M221.442 92.6821V53.576C221.442 52.7593 221.735 52.0683 222.321 51.5029C222.908 50.9375 223.609 50.6548 224.426 50.6548H260.642C261.459 50.6548 262.15 50.948 262.715 51.5343C263.302 52.1206 263.595 52.8221 263.595 53.6388V56.5914C263.595 57.4081 263.302 58.1096 262.715 58.6959C262.15 59.2613 261.459 59.544 260.642 59.544H233.284V68.6844H256.842C257.658 68.6844 258.349 68.9776 258.915 69.5639C259.501 70.1293 259.794 70.8203 259.794 71.637V74.5896C259.794 75.4063 259.501 76.1078 258.915 76.6941C258.349 77.2595 257.658 77.5422 256.842 77.5422H233.284V86.8083H260.579C261.375 86.8083 262.056 87.091 262.621 87.6564C263.186 88.2218 263.469 88.9128 263.469 89.7295V92.7449C263.469 93.5616 263.176 94.2631 262.59 94.8494C262.003 95.4148 261.302 95.6975 260.485 95.6975H224.426C223.609 95.6975 222.908 95.4148 222.321 94.8494C221.735 94.2631 221.442 93.5406 221.442 92.6821Z" stroke="url(#paint12_linear)" stroke-width="4" mask="url(#path-3-outside-1)"/>
<path d="M105.568 156.129L105.569 156.129C110.157 152.1 112.348 145.812 112.348 137.505C112.348 129.199 110.158 122.92 105.567 118.911C101.045 114.944 94.4878 113.041 86.0625 113.041C77.6563 113.041 71.1005 114.944 66.5584 118.91C61.9676 122.919 59.777 129.198 59.777 137.505C59.777 145.812 61.9678 152.1 66.5563 156.129L66.5584 156.131C71.1005 160.097 77.6563 162 86.0625 162C94.4883 162 101.046 160.097 105.568 156.129ZM118.004 115.112L118.691 115.825L118.004 115.112C117.221 115.866 116.819 116.817 116.819 117.905V157.011C116.819 158.124 117.21 159.104 117.991 159.885L117.997 159.892L118.004 159.898C118.777 160.644 119.728 161.026 120.803 161.026H126.708C127.783 161.026 128.731 160.643 129.488 159.885C130.269 159.104 130.66 158.124 130.66 157.011V144.818H151.93C153.006 144.818 153.953 144.435 154.711 143.677C155.481 142.907 155.883 141.952 155.883 140.866V137.882C155.883 136.812 155.478 135.872 154.717 135.108C153.963 134.33 153.015 133.929 151.93 133.929H130.66V124.873H157.019C158.094 124.873 159.042 124.489 159.799 123.732C160.57 122.961 160.971 122.007 160.971 120.92V117.968C160.971 116.884 160.572 115.932 159.805 115.162C159.052 114.384 158.103 113.984 157.019 113.984H120.803C119.728 113.984 118.777 114.366 118.004 115.112ZM165.295 159.885L165.302 159.892L165.308 159.898C166.081 160.644 167.032 161.026 168.107 161.026H174.012C175.087 161.026 176.035 160.643 176.792 159.885C177.573 159.104 177.965 158.124 177.965 157.011V144.818H199.235C200.31 144.818 201.257 144.435 202.015 143.677C202.785 142.907 203.187 141.952 203.187 140.866V137.882C203.187 136.812 202.782 135.872 202.021 135.108C201.268 134.33 200.319 133.929 199.235 133.929H177.965V124.873H204.323C205.399 124.873 206.346 124.489 207.103 123.732C207.874 122.961 208.276 122.007 208.276 120.92V117.968C208.276 116.884 207.876 115.932 207.11 115.162C206.356 114.384 205.407 113.984 204.323 113.984H168.107C167.032 113.984 166.081 114.366 165.308 115.112C164.526 115.866 164.123 116.817 164.123 117.905V157.011C164.123 158.124 164.514 159.104 165.295 159.885ZM86.0625 123.522C90.6342 123.522 93.7158 124.734 95.5686 126.935C97.4705 129.195 98.5062 132.671 98.5062 137.536C98.5062 142.378 97.4716 145.844 95.57 148.104C93.7178 150.285 90.6356 151.488 86.0625 151.488C81.5142 151.488 78.4284 150.287 76.5534 148.103C74.6528 145.842 73.6187 142.377 73.6187 137.536C73.6187 132.672 74.6538 129.197 76.5547 126.937C78.4302 124.732 81.5155 123.522 86.0625 123.522Z" stroke="url(#paint13_linear)" stroke-width="2"/>
<path d="M29.8531 144.221L32.2177 145.15C33.6609 145.717 33.9378 147.639 32.7133 148.591L22.7554 156.327C22.1981 156.76 21.4539 156.867 20.7971 156.609L11.8385 153.089C10.2597 152.469 10.1214 150.288 11.6091 149.473L14.051 148.136C15.5387 147.321 15.4004 145.141 13.8216 144.52L11.8586 143.749C10.1752 143.088 10.1646 140.709 11.8422 140.033L31.6372 132.052C33.5618 131.276 35.2488 133.583 33.9261 135.182L29.0434 141.084C28.176 142.133 28.5864 143.723 29.8531 144.221Z" fill="url(#paint14_linear)"/>
<path d="M24.5135 16.4416L27.0129 15.9863C28.5384 15.7084 29.1811 13.8754 28.1632 12.7057L19.8853 3.19347C19.422 2.6611 18.7125 2.4123 18.0182 2.53877L8.54876 4.26372C6.87998 4.56771 6.32348 6.68051 7.626 7.76711L9.76388 9.55058C11.0664 10.6372 10.5099 12.75 8.84112 13.054L6.7662 13.4319C4.98674 13.7561 4.5174 16.088 6.0329 17.0753L23.9159 28.7257C25.6546 29.8584 27.755 27.9206 26.7657 26.0964L23.1138 19.3627C22.465 18.1664 23.1746 16.6855 24.5135 16.4416Z" fill="url(#paint15_linear)"/>
<path d="M241.156 15.876L238.694 15.25C237.191 14.8679 236.676 12.9951 237.772 11.8981L246.684 2.97746C247.183 2.47821 247.908 2.27878 248.592 2.45269L257.92 4.82458C259.564 5.24257 259.974 7.38864 258.6 8.38312L256.344 10.0154C254.97 11.0099 255.38 13.1559 257.024 13.5739L259.068 14.0937C260.821 14.5394 261.129 16.898 259.549 17.7788L240.907 28.1721C239.095 29.1826 237.133 27.105 238.245 25.3532L242.351 18.8864C243.081 17.7376 242.475 16.2114 241.156 15.876Z" fill="url(#paint16_linear)"/>
<path d="M242.998 145.221L240.634 146.15C239.191 146.717 238.914 148.639 240.138 149.591L250.096 157.327C250.653 157.76 251.398 157.867 252.055 157.609L261.013 154.089C262.592 153.469 262.73 151.288 261.242 150.473L258.801 149.136C257.313 148.321 257.451 146.141 259.03 145.52L260.993 144.749C262.676 144.088 262.687 141.709 261.009 141.033L241.214 133.052C239.29 132.276 237.603 134.583 238.925 136.182L243.808 142.084C244.676 143.133 244.265 144.723 242.998 145.221Z" fill="url(#paint17_linear)"/>
<defs>
<linearGradient id="paint0_linear" x1="135" y1="50.4035" x2="135" y2="95.9488" gradientUnits="userSpaceOnUse">
<stop stop-color="#FFE924"/>
<stop offset="0.479167" stop-color="#FF86B1"/>
<stop offset="1" stop-color="#FF2473"/>
</linearGradient>
<linearGradient id="paint1_linear" x1="135" y1="50.4035" x2="135" y2="95.9488" gradientUnits="userSpaceOnUse">
<stop stop-color="#FFE924"/>
<stop offset="0.479167" stop-color="#FF86B1"/>
<stop offset="1" stop-color="#FF2473"/>
</linearGradient>
<linearGradient id="paint2_linear" x1="135" y1="50.4035" x2="135" y2="95.9488" gradientUnits="userSpaceOnUse">
<stop stop-color="#FFE924"/>
<stop offset="0.479167" stop-color="#FF86B1"/>
<stop offset="1" stop-color="#FF2473"/>
</linearGradient>
<linearGradient id="paint3_linear" x1="135" y1="50.4035" x2="135" y2="95.9488" gradientUnits="userSpaceOnUse">
<stop stop-color="#FFE924"/>
<stop offset="0.479167" stop-color="#FF86B1"/>
<stop offset="1" stop-color="#FF2473"/>
</linearGradient>
<linearGradient id="paint4_linear" x1="135" y1="50.4035" x2="135" y2="95.9488" gradientUnits="userSpaceOnUse">
<stop stop-color="#FFE924"/>
<stop offset="0.479167" stop-color="#FF86B1"/>
<stop offset="1" stop-color="#FF2473"/>
</linearGradient>
<linearGradient id="paint5_linear" x1="134.026" y1="114.041" x2="134.026" y2="161" gradientUnits="userSpaceOnUse">
<stop stop-color="#FFE924"/>
<stop offset="0.479167" stop-color="#FF86B1"/>
<stop offset="1" stop-color="#FF2473"/>
</linearGradient>
<linearGradient id="paint6_linear" x1="134.026" y1="114.041" x2="134.026" y2="161" gradientUnits="userSpaceOnUse">
<stop stop-color="#FFE924"/>
<stop offset="0.479167" stop-color="#FF86B1"/>
<stop offset="1" stop-color="#FF2473"/>
</linearGradient>
<linearGradient id="paint7_linear" x1="134.026" y1="114.041" x2="134.026" y2="161" gradientUnits="userSpaceOnUse">
<stop stop-color="#FFE924"/>
<stop offset="0.479167" stop-color="#FF86B1"/>
<stop offset="1" stop-color="#FF2473"/>
</linearGradient>
<linearGradient id="paint8_linear" x1="135" y1="50.4035" x2="135" y2="95.9488" gradientUnits="userSpaceOnUse">
<stop stop-color="#FF2473"/>
<stop offset="0.541667" stop-color="#DEFFF6"/>
<stop offset="1" stop-color="#FFE924"/>
</linearGradient>
<linearGradient id="paint9_linear" x1="135" y1="50.4035" x2="135" y2="95.9488" gradientUnits="userSpaceOnUse">
<stop stop-color="#FF2473"/>
<stop offset="0.541667" stop-color="#DEFFF6"/>
<stop offset="1" stop-color="#FFE924"/>
</linearGradient>
<linearGradient id="paint10_linear" x1="135" y1="50.4035" x2="135" y2="95.9488" gradientUnits="userSpaceOnUse">
<stop stop-color="#FF2473"/>
<stop offset="0.541667" stop-color="#DEFFF6"/>
<stop offset="1" stop-color="#FFE924"/>
</linearGradient>
<linearGradient id="paint11_linear" x1="135" y1="50.4035" x2="135" y2="95.9488" gradientUnits="userSpaceOnUse">
<stop stop-color="#FF2473"/>
<stop offset="0.541667" stop-color="#DEFFF6"/>
<stop offset="1" stop-color="#FFE924"/>
</linearGradient>
<linearGradient id="paint12_linear" x1="135" y1="50.4035" x2="135" y2="95.9488" gradientUnits="userSpaceOnUse">
<stop stop-color="#FF2473"/>
<stop offset="0.541667" stop-color="#DEFFF6"/>
<stop offset="1" stop-color="#FFE924"/>
</linearGradient>
<linearGradient id="paint13_linear" x1="134.026" y1="114.041" x2="134.026" y2="161" gradientUnits="userSpaceOnUse">
<stop stop-color="#FF2473"/>
<stop offset="0.541667" stop-color="#DEFFF6"/>
<stop offset="1" stop-color="#FFE924"/>
</linearGradient>
<linearGradient id="paint14_linear" x1="13.0001" y1="160" x2="33.3526" y2="141.487" gradientUnits="userSpaceOnUse">
<stop stop-color="#FF86B1"/>
<stop offset="0.43367" stop-color="#FF2473"/>
<stop offset="1" stop-color="#FFE924"/>
</linearGradient>
<linearGradient id="paint15_linear" x1="0.000119286" y1="1" x2="18.5812" y2="22.6426" gradientUnits="userSpaceOnUse">
<stop stop-color="#FF86B1"/>
<stop offset="0.453125" stop-color="#FF2473"/>
<stop offset="1" stop-color="#FFE924"/>
</linearGradient>
<linearGradient id="paint16_linear" x1="249" y1="2.98496e-07" x2="239.662" y2="18.3178" gradientUnits="userSpaceOnUse">
<stop stop-color="#FF86B1"/>
<stop offset="0.453125" stop-color="#FF2473"/>
<stop offset="1" stop-color="#FFE924"/>
</linearGradient>
<linearGradient id="paint17_linear" x1="257" y1="151" x2="243.342" y2="141.998" gradientUnits="userSpaceOnUse">
<stop stop-color="#FF86B1"/>
<stop offset="0.453125" stop-color="#FF2473"/>
<stop offset="1" stop-color="#FFE924"/>
</linearGradient>
</defs>
</svg>
