<svg width="201" height="59" viewBox="0 0 201 59" fill="none" xmlns="http://www.w3.org/2000/svg">
<path d="M14.7335 30.6917C10.3089 30.6917 6.91054 29.499 4.53833 27.1134C2.17944 24.7279 1 21.0829 1 16.1786C1 11.2609 2.23275 7.62263 4.69826 5.26374C7.17709 2.89152 10.8887 1.70542 15.833 1.70542H20.2909C23.2362 1.70542 25.8883 2.41175 28.2471 3.82442C30.6194 5.22376 31.8055 6.97626 31.8055 9.08194C31.8055 9.86823 31.5722 10.4346 31.1058 10.7811C30.6393 11.1143 30.1862 11.2809 29.7464 11.2809H27.3676C26.2214 11.2809 25.3085 10.6279 24.6289 9.32182C23.9492 8.01577 22.27 7.36275 19.5912 7.36275H16.0329C13.1143 7.36275 11.1352 7.98912 10.0957 9.24186C9.0562 10.4946 8.53644 12.8002 8.53644 16.1586C8.53644 19.517 9.00289 21.8426 9.93578 23.1353C10.8687 24.4147 12.5346 25.0544 14.9334 25.0544H19.0315C21.1771 25.0544 22.7098 24.6479 23.6293 23.835C24.5489 23.0087 25.022 21.8293 25.0487 20.2966H20.5308C20.011 20.2966 19.5646 20.1167 19.1914 19.7569C18.8316 19.3837 18.6517 18.9373 18.6517 18.4175V16.8583C18.6517 16.3385 18.8316 15.8987 19.1914 15.5389C19.5646 15.1657 20.011 14.9792 20.5308 14.9792H30.5661C31.0858 14.9792 31.5256 15.1657 31.8854 15.5389C32.2586 15.8987 32.4452 16.3385 32.4452 16.8583V19.0772C32.4452 22.8088 31.3257 25.6808 29.0868 27.6932C26.8478 29.6922 23.5627 30.6917 19.2314 30.6917H14.7335Z" fill="url(#paint0_linear)"/>
<path d="M36.5432 28.6927V3.76445C36.5432 3.24469 36.7298 2.79824 37.103 2.42508C37.4761 2.05192 37.9226 1.86534 38.4423 1.86534H42.1606C42.707 1.86534 43.1601 2.05192 43.5199 2.42508C43.8931 2.79824 44.0797 3.24469 44.0797 3.76445V28.6527C44.0797 29.1725 43.8864 29.6189 43.5 29.9921C43.1268 30.3519 42.6803 30.5318 42.1606 30.5318H38.4423C37.9226 30.5318 37.4761 30.3586 37.103 30.0121C36.7298 29.6522 36.5432 29.2124 36.5432 28.6927Z" fill="url(#paint1_linear)"/>
<path d="M47.3581 5.64356V3.76445C47.3581 3.21804 47.538 2.76492 47.8979 2.40509C48.2577 2.04526 48.7108 1.86534 49.2572 1.86534H74.6253C75.1717 1.86534 75.6248 2.04526 75.9846 2.40509C76.3445 2.76492 76.5244 3.21804 76.5244 3.76445V5.64356C76.5244 6.18997 76.3445 6.64309 75.9846 7.00292C75.6248 7.34942 75.1717 7.52267 74.6253 7.52267H65.7095V28.6927C65.7095 29.2124 65.5229 29.6522 65.1497 30.0121C64.7899 30.3586 64.3501 30.5318 63.8304 30.5318H60.0521C59.5324 30.5318 59.0859 30.3586 58.7128 30.0121C58.3529 29.6522 58.173 29.2124 58.173 28.6927V7.52267H49.2572C48.7108 7.52267 48.2577 7.34942 47.8979 7.00292C47.538 6.64309 47.3581 6.18997 47.3581 5.64356Z" fill="url(#paint2_linear)"/>
<path d="M81.2621 27.1534C78.7966 24.7945 77.5639 21.1496 77.5639 16.2186C77.5639 11.2742 78.7966 7.62263 81.2621 5.26374C83.741 2.89152 87.4525 1.70542 92.3969 1.70542H96.8548C99.88 1.70542 102.552 2.49171 104.871 4.0643C107.203 5.6369 108.369 7.78921 108.369 10.5213C108.369 11.3076 108.136 11.874 107.67 12.2205C107.203 12.5536 106.75 12.7202 106.31 12.7202H103.931C102.705 12.7202 101.752 11.9872 101.073 10.5213C100.087 8.41559 98.4474 7.36275 96.1551 7.36275H92.5968C89.6782 7.36275 87.6991 7.98912 86.6596 9.24186C85.6201 10.4946 85.1003 12.8135 85.1003 16.1986C85.1003 19.5836 85.6201 21.9092 86.6596 23.1753C87.6991 24.428 89.6782 25.0544 92.5968 25.0544H96.5749C98.8672 25.0544 100.5 24.0016 101.473 21.8959C102.152 20.4166 103.112 19.6769 104.351 19.6769H106.73C107.356 19.6769 107.85 19.9102 108.209 20.3766C108.583 20.8431 108.769 21.3495 108.769 21.8959C108.769 24.6279 107.61 26.7803 105.291 28.3528C102.972 29.9121 100.3 30.6917 97.2746 30.6917H92.3969C87.4525 30.6917 83.741 29.5123 81.2621 27.1534Z" fill="url(#paint3_linear)"/>
<path d="M139.115 27.5732C136.396 29.9588 132.398 31.1515 127.12 31.1515C121.856 31.1515 117.858 29.9588 115.126 27.5732C112.394 25.1743 111.028 21.3828 111.028 16.1986C111.028 11.0144 112.394 7.22948 115.126 4.84394C117.858 2.4584 121.856 1.26562 127.12 1.26562C132.398 1.26562 136.396 2.4584 139.115 4.84394C141.847 7.22948 143.213 11.0144 143.213 16.1986C143.213 21.3828 141.847 25.1743 139.115 27.5732ZM133.657 9.06195C132.311 7.4627 130.132 6.66308 127.12 6.66308C124.122 6.66308 121.943 7.4627 120.584 9.06195C119.238 10.6612 118.565 13.0467 118.565 16.2186C118.565 19.3771 119.238 21.756 120.584 23.3552C121.943 24.9411 124.122 25.7341 127.12 25.7341C130.132 25.7341 132.311 24.9411 133.657 23.3552C135.003 21.756 135.676 19.3771 135.676 16.2186C135.676 13.0467 135.003 10.6612 133.657 9.06195Z" fill="url(#paint4_linear)"/>
<path d="M147.331 28.6927V3.76445C147.331 3.24469 147.518 2.79824 147.891 2.42508C148.264 2.05192 148.71 1.86534 149.23 1.86534H152.948C153.495 1.86534 153.948 2.05192 154.308 2.42508C154.681 2.79824 154.867 3.24469 154.867 3.76445V28.6527C154.867 29.1725 154.674 29.6189 154.288 29.9921C153.915 30.3519 153.468 30.5318 152.948 30.5318H149.23C148.71 30.5318 148.264 30.3586 147.891 30.0121C147.518 29.6522 147.331 29.2124 147.331 28.6927Z" fill="url(#paint5_linear)"/>
<path d="M160.605 28.6527V3.76445C160.605 3.24469 160.785 2.79824 161.144 2.42508C161.504 2.05192 161.944 1.86534 162.464 1.86534H168.341C168.807 1.86534 169.301 2.05192 169.82 2.42508C170.34 2.79824 170.767 3.24469 171.1 3.76445L183.174 22.3357V3.72446C183.174 3.20471 183.354 2.76492 183.714 2.40509C184.087 2.04526 184.533 1.86534 185.053 1.86534H188.492C189.011 1.86534 189.451 2.04526 189.811 2.40509C190.184 2.76492 190.371 3.21804 190.371 3.76445V28.6527C190.371 29.1725 190.184 29.6189 189.811 29.9921C189.451 30.3519 189.011 30.5318 188.492 30.5318H181.855C181.335 30.5318 180.802 30.3519 180.255 29.9921C179.709 29.6189 179.276 29.1725 178.956 28.6527L167.901 11.5008V28.6527C167.901 29.1725 167.715 29.6189 167.342 29.9921C166.982 30.3519 166.542 30.5318 166.022 30.5318H162.504C161.984 30.5318 161.538 30.3519 161.164 29.9921C160.791 29.6189 160.605 29.1725 160.605 28.6527Z" fill="url(#paint6_linear)"/>
<mask id="path-2-outside-1" maskUnits="userSpaceOnUse" x="0" y="0.265625" width="192" height="32" fill="black">
<rect fill="white" y="0.265625" width="192" height="32"/>
<path d="M14.7335 30.6917C10.3089 30.6917 6.91054 29.499 4.53833 27.1134C2.17944 24.7279 1 21.0829 1 16.1786C1 11.2609 2.23275 7.62263 4.69826 5.26374C7.17709 2.89152 10.8887 1.70542 15.833 1.70542H20.2909C23.2362 1.70542 25.8883 2.41175 28.2471 3.82442C30.6194 5.22376 31.8055 6.97626 31.8055 9.08194C31.8055 9.86823 31.5722 10.4346 31.1058 10.7811C30.6393 11.1143 30.1862 11.2809 29.7464 11.2809H27.3676C26.2214 11.2809 25.3085 10.6279 24.6289 9.32182C23.9492 8.01577 22.27 7.36275 19.5912 7.36275H16.0329C13.1143 7.36275 11.1352 7.98912 10.0957 9.24186C9.0562 10.4946 8.53644 12.8002 8.53644 16.1586C8.53644 19.517 9.00289 21.8426 9.93578 23.1353C10.8687 24.4147 12.5346 25.0544 14.9334 25.0544H19.0315C21.1771 25.0544 22.7098 24.6479 23.6293 23.835C24.5489 23.0087 25.022 21.8293 25.0487 20.2966H20.5308C20.011 20.2966 19.5646 20.1167 19.1914 19.7569C18.8316 19.3837 18.6517 18.9373 18.6517 18.4175V16.8583C18.6517 16.3385 18.8316 15.8987 19.1914 15.5389C19.5646 15.1657 20.011 14.9792 20.5308 14.9792H30.5661C31.0858 14.9792 31.5256 15.1657 31.8854 15.5389C32.2586 15.8987 32.4452 16.3385 32.4452 16.8583V19.0772C32.4452 22.8088 31.3257 25.6808 29.0868 27.6932C26.8478 29.6922 23.5627 30.6917 19.2314 30.6917H14.7335Z"/>
<path d="M36.5432 28.6927V3.76445C36.5432 3.24469 36.7298 2.79824 37.103 2.42508C37.4761 2.05192 37.9226 1.86534 38.4423 1.86534H42.1606C42.707 1.86534 43.1601 2.05192 43.5199 2.42508C43.8931 2.79824 44.0797 3.24469 44.0797 3.76445V28.6527C44.0797 29.1725 43.8864 29.6189 43.5 29.9921C43.1268 30.3519 42.6803 30.5318 42.1606 30.5318H38.4423C37.9226 30.5318 37.4761 30.3586 37.103 30.0121C36.7298 29.6522 36.5432 29.2124 36.5432 28.6927Z"/>
<path d="M47.3581 5.64356V3.76445C47.3581 3.21804 47.538 2.76492 47.8979 2.40509C48.2577 2.04526 48.7108 1.86534 49.2572 1.86534H74.6253C75.1717 1.86534 75.6248 2.04526 75.9846 2.40509C76.3445 2.76492 76.5244 3.21804 76.5244 3.76445V5.64356C76.5244 6.18997 76.3445 6.64309 75.9846 7.00292C75.6248 7.34942 75.1717 7.52267 74.6253 7.52267H65.7095V28.6927C65.7095 29.2124 65.5229 29.6522 65.1497 30.0121C64.7899 30.3586 64.3501 30.5318 63.8304 30.5318H60.0521C59.5324 30.5318 59.0859 30.3586 58.7128 30.0121C58.3529 29.6522 58.173 29.2124 58.173 28.6927V7.52267H49.2572C48.7108 7.52267 48.2577 7.34942 47.8979 7.00292C47.538 6.64309 47.3581 6.18997 47.3581 5.64356Z"/>
<path d="M81.2621 27.1534C78.7966 24.7945 77.5639 21.1496 77.5639 16.2186C77.5639 11.2742 78.8877 7.78699 81.2621 5.26374C83.741 2.89152 87.4525 1.70542 92.3969 1.70542H96.8548C99.88 1.70542 102.552 2.49171 104.871 4.0643C107.203 5.6369 108.369 7.78921 108.369 10.5213C108.369 11.3076 108.136 11.874 107.67 12.2205C107.203 12.5536 106.75 12.7202 106.31 12.7202H103.931C102.705 12.7202 101.752 11.9872 101.073 10.5213C100.087 8.41559 98.4474 7.36275 96.1551 7.36275H92.5968C89.6782 7.36275 87.6991 7.98912 86.6596 9.24186C85.6201 10.4946 85.1003 12.8135 85.1003 16.1986C85.1003 19.5836 85.6201 21.9092 86.6596 23.1753C87.6991 24.428 89.6782 25.0544 92.5968 25.0544H96.5749C98.8672 25.0544 100.5 24.0016 101.473 21.8959C102.152 20.4166 103.112 19.6769 104.351 19.6769H106.73C107.356 19.6769 107.85 19.9102 108.209 20.3766C108.583 20.8431 108.769 21.3495 108.769 21.8959C108.769 24.6279 107.61 26.7803 105.291 28.3528C102.972 29.9121 100.3 30.6917 97.2746 30.6917H92.3969C87.4525 30.6917 83.741 29.5123 81.2621 27.1534Z"/>
<path d="M139.115 27.5732C136.396 29.9588 132.398 31.1515 127.12 31.1515C121.856 31.1515 117.858 29.9588 115.126 27.5732C112.394 25.1743 111.028 21.3828 111.028 16.1986C111.028 11.0144 112.394 7.22948 115.126 4.84394C117.858 2.4584 121.856 1.26562 127.12 1.26562C132.398 1.26562 136.396 2.4584 139.115 4.84394C141.847 7.22948 143.213 11.0144 143.213 16.1986C143.213 21.3828 141.847 25.1743 139.115 27.5732ZM133.657 9.06195C132.311 7.4627 130.132 6.66308 127.12 6.66308C124.122 6.66308 121.943 7.4627 120.584 9.06195C119.238 10.6612 118.565 13.0467 118.565 16.2186C118.565 19.3771 119.238 21.756 120.584 23.3552C121.943 24.9411 124.122 25.7341 127.12 25.7341C130.132 25.7341 132.311 24.9411 133.657 23.3552C135.003 21.756 135.676 19.3771 135.676 16.2186C135.676 13.0467 135.003 10.6612 133.657 9.06195Z"/>
<path d="M147.331 28.6927V3.76445C147.331 3.24469 147.518 2.79824 147.891 2.42508C148.264 2.05192 148.71 1.86534 149.23 1.86534H152.948C153.495 1.86534 153.948 2.05192 154.308 2.42508C154.681 2.79824 154.867 3.24469 154.867 3.76445V28.6527C154.867 29.1725 154.674 29.6189 154.288 29.9921C153.915 30.3519 153.468 30.5318 152.948 30.5318H149.23C148.71 30.5318 148.264 30.3586 147.891 30.0121C147.518 29.6522 147.331 29.2124 147.331 28.6927Z"/>
<path d="M160.605 28.6527V3.76445C160.605 3.24469 160.785 2.79824 161.144 2.42508C161.504 2.05192 161.944 1.86534 162.464 1.86534H168.341C168.807 1.86534 169.301 2.05192 169.82 2.42508C170.34 2.79824 170.767 3.24469 171.1 3.76445L183.174 22.3357V3.72446C183.174 3.20471 183.354 2.76492 183.714 2.40509C184.087 2.04526 184.533 1.86534 185.053 1.86534H188.492C189.011 1.86534 189.451 2.04526 189.811 2.40509C190.184 2.76492 190.371 3.21804 190.371 3.76445V28.6527C190.371 29.1725 190.184 29.6189 189.811 29.9921C189.451 30.3519 189.011 30.5318 188.492 30.5318H181.855C181.335 30.5318 180.802 30.3519 180.255 29.9921C179.709 29.6189 179.276 29.1725 178.956 28.6527L167.901 11.5008V28.6527C167.901 29.1725 167.715 29.6189 167.342 29.9921C166.982 30.3519 166.542 30.5318 166.022 30.5318H162.504C161.984 30.5318 161.538 30.3519 161.164 29.9921C160.791 29.6189 160.605 29.1725 160.605 28.6527Z"/>
</mask>
<path d="M14.7335 30.6917C10.3089 30.6917 6.91054 29.499 4.53833 27.1134C2.17944 24.7279 1 21.0829 1 16.1786C1 11.2609 2.23275 7.62263 4.69826 5.26374C7.17709 2.89152 10.8887 1.70542 15.833 1.70542H20.2909C23.2362 1.70542 25.8883 2.41175 28.2471 3.82442C30.6194 5.22376 31.8055 6.97626 31.8055 9.08194C31.8055 9.86823 31.5722 10.4346 31.1058 10.7811C30.6393 11.1143 30.1862 11.2809 29.7464 11.2809H27.3676C26.2214 11.2809 25.3085 10.6279 24.6289 9.32182C23.9492 8.01577 22.27 7.36275 19.5912 7.36275H16.0329C13.1143 7.36275 11.1352 7.98912 10.0957 9.24186C9.0562 10.4946 8.53644 12.8002 8.53644 16.1586C8.53644 19.517 9.00289 21.8426 9.93578 23.1353C10.8687 24.4147 12.5346 25.0544 14.9334 25.0544H19.0315C21.1771 25.0544 22.7098 24.6479 23.6293 23.835C24.5489 23.0087 25.022 21.8293 25.0487 20.2966H20.5308C20.011 20.2966 19.5646 20.1167 19.1914 19.7569C18.8316 19.3837 18.6517 18.9373 18.6517 18.4175V16.8583C18.6517 16.3385 18.8316 15.8987 19.1914 15.5389C19.5646 15.1657 20.011 14.9792 20.5308 14.9792H30.5661C31.0858 14.9792 31.5256 15.1657 31.8854 15.5389C32.2586 15.8987 32.4452 16.3385 32.4452 16.8583V19.0772C32.4452 22.8088 31.3257 25.6808 29.0868 27.6932C26.8478 29.6922 23.5627 30.6917 19.2314 30.6917H14.7335Z" stroke="url(#paint7_linear)" stroke-width="2" mask="url(#path-2-outside-1)"/>
<path d="M36.5432 28.6927V3.76445C36.5432 3.24469 36.7298 2.79824 37.103 2.42508C37.4761 2.05192 37.9226 1.86534 38.4423 1.86534H42.1606C42.707 1.86534 43.1601 2.05192 43.5199 2.42508C43.8931 2.79824 44.0797 3.24469 44.0797 3.76445V28.6527C44.0797 29.1725 43.8864 29.6189 43.5 29.9921C43.1268 30.3519 42.6803 30.5318 42.1606 30.5318H38.4423C37.9226 30.5318 37.4761 30.3586 37.103 30.0121C36.7298 29.6522 36.5432 29.2124 36.5432 28.6927Z" stroke="url(#paint8_linear)" stroke-width="2" mask="url(#path-2-outside-1)"/>
<path d="M47.3581 5.64356V3.76445C47.3581 3.21804 47.538 2.76492 47.8979 2.40509C48.2577 2.04526 48.7108 1.86534 49.2572 1.86534H74.6253C75.1717 1.86534 75.6248 2.04526 75.9846 2.40509C76.3445 2.76492 76.5244 3.21804 76.5244 3.76445V5.64356C76.5244 6.18997 76.3445 6.64309 75.9846 7.00292C75.6248 7.34942 75.1717 7.52267 74.6253 7.52267H65.7095V28.6927C65.7095 29.2124 65.5229 29.6522 65.1497 30.0121C64.7899 30.3586 64.3501 30.5318 63.8304 30.5318H60.0521C59.5324 30.5318 59.0859 30.3586 58.7128 30.0121C58.3529 29.6522 58.173 29.2124 58.173 28.6927V7.52267H49.2572C48.7108 7.52267 48.2577 7.34942 47.8979 7.00292C47.538 6.64309 47.3581 6.18997 47.3581 5.64356Z" stroke="url(#paint9_linear)" stroke-width="2" mask="url(#path-2-outside-1)"/>
<path d="M81.2621 27.1534C78.7966 24.7945 77.5639 21.1496 77.5639 16.2186C77.5639 11.2742 78.8877 7.78699 81.2621 5.26374C83.741 2.89152 87.4525 1.70542 92.3969 1.70542H96.8548C99.88 1.70542 102.552 2.49171 104.871 4.0643C107.203 5.6369 108.369 7.78921 108.369 10.5213C108.369 11.3076 108.136 11.874 107.67 12.2205C107.203 12.5536 106.75 12.7202 106.31 12.7202H103.931C102.705 12.7202 101.752 11.9872 101.073 10.5213C100.087 8.41559 98.4474 7.36275 96.1551 7.36275H92.5968C89.6782 7.36275 87.6991 7.98912 86.6596 9.24186C85.6201 10.4946 85.1003 12.8135 85.1003 16.1986C85.1003 19.5836 85.6201 21.9092 86.6596 23.1753C87.6991 24.428 89.6782 25.0544 92.5968 25.0544H96.5749C98.8672 25.0544 100.5 24.0016 101.473 21.8959C102.152 20.4166 103.112 19.6769 104.351 19.6769H106.73C107.356 19.6769 107.85 19.9102 108.209 20.3766C108.583 20.8431 108.769 21.3495 108.769 21.8959C108.769 24.6279 107.61 26.7803 105.291 28.3528C102.972 29.9121 100.3 30.6917 97.2746 30.6917H92.3969C87.4525 30.6917 83.741 29.5123 81.2621 27.1534Z" stroke="url(#paint10_linear)" stroke-width="2" mask="url(#path-2-outside-1)"/>
<path d="M139.115 27.5732C136.396 29.9588 132.398 31.1515 127.12 31.1515C121.856 31.1515 117.858 29.9588 115.126 27.5732C112.394 25.1743 111.028 21.3828 111.028 16.1986C111.028 11.0144 112.394 7.22948 115.126 4.84394C117.858 2.4584 121.856 1.26562 127.12 1.26562C132.398 1.26562 136.396 2.4584 139.115 4.84394C141.847 7.22948 143.213 11.0144 143.213 16.1986C143.213 21.3828 141.847 25.1743 139.115 27.5732ZM133.657 9.06195C132.311 7.4627 130.132 6.66308 127.12 6.66308C124.122 6.66308 121.943 7.4627 120.584 9.06195C119.238 10.6612 118.565 13.0467 118.565 16.2186C118.565 19.3771 119.238 21.756 120.584 23.3552C121.943 24.9411 124.122 25.7341 127.12 25.7341C130.132 25.7341 132.311 24.9411 133.657 23.3552C135.003 21.756 135.676 19.3771 135.676 16.2186C135.676 13.0467 135.003 10.6612 133.657 9.06195Z" stroke="url(#paint11_linear)" stroke-width="2" mask="url(#path-2-outside-1)"/>
<path d="M147.331 28.6927V3.76445C147.331 3.24469 147.518 2.79824 147.891 2.42508C148.264 2.05192 148.71 1.86534 149.23 1.86534H152.948C153.495 1.86534 153.948 2.05192 154.308 2.42508C154.681 2.79824 154.867 3.24469 154.867 3.76445V28.6527C154.867 29.1725 154.674 29.6189 154.288 29.9921C153.915 30.3519 153.468 30.5318 152.948 30.5318H149.23C148.71 30.5318 148.264 30.3586 147.891 30.0121C147.518 29.6522 147.331 29.2124 147.331 28.6927Z" stroke="url(#paint12_linear)" stroke-width="2" mask="url(#path-2-outside-1)"/>
<path d="M160.605 28.6527V3.76445C160.605 3.24469 160.785 2.79824 161.144 2.42508C161.504 2.05192 161.944 1.86534 162.464 1.86534H168.341C168.807 1.86534 169.301 2.05192 169.82 2.42508C170.34 2.79824 170.767 3.24469 171.1 3.76445L183.174 22.3357V3.72446C183.174 3.20471 183.354 2.76492 183.714 2.40509C184.087 2.04526 184.533 1.86534 185.053 1.86534H188.492C189.011 1.86534 189.451 2.04526 189.811 2.40509C190.184 2.76492 190.371 3.21804 190.371 3.76445V28.6527C190.371 29.1725 190.184 29.6189 189.811 29.9921C189.451 30.3519 189.011 30.5318 188.492 30.5318H181.855C181.335 30.5318 180.802 30.3519 180.255 29.9921C179.709 29.6189 179.276 29.1725 178.956 28.6527L167.901 11.5008V28.6527C167.901 29.1725 167.715 29.6189 167.342 29.9921C166.982 30.3519 166.542 30.5318 166.022 30.5318H162.504C161.984 30.5318 161.538 30.3519 161.164 29.9921C160.791 29.6189 160.605 29.1725 160.605 28.6527Z" stroke="url(#paint13_linear)" stroke-width="2" mask="url(#path-2-outside-1)"/>
<path d="M85.116 54.6234C84.3615 54.9058 83.7842 55.0542 83.3842 55.0688C82.7659 55.0913 82.1391 54.8774 81.5037 54.4271C80.9383 53.9014 80.6457 53.3658 80.6259 52.8203C80.5928 51.9111 81.2319 50.9593 82.5431 49.9648C83.2532 49.4655 83.8083 49.2086 84.2084 49.1941C84.4993 49.1835 84.9956 49.3111 85.6971 49.5769C86.8146 50.2646 87.3873 50.9903 87.415 51.754C87.4521 52.7723 86.6857 53.7288 85.116 54.6234Z" fill="url(#paint14_linear)"/>
<path d="M107.636 57.6826C107.167 57.8089 106.709 57.7164 106.26 57.4049C105.812 57.0935 105.471 56.7235 105.237 56.2951C105.037 55.7925 104.891 55.3062 104.801 54.8361C104.71 54.3296 104.631 53.6587 104.564 52.8236L104.442 50.9708L102.279 53.0706C100.066 55.2996 97.9776 56.4498 96.0137 56.5213C95.4278 56.4333 94.6645 55.9695 93.7235 55.1297C92.8189 54.2887 92.2281 53.5636 91.9511 52.9546C91.795 52.669 91.7057 52.217 91.6833 51.5988C91.633 50.2168 91.9365 48.5488 92.5937 46.5949C93.2497 44.6046 94.1013 42.9895 95.1487 41.7497C95.9051 40.5205 96.8358 39.5762 97.9407 38.917C99.0456 38.2577 100.18 37.9069 101.344 37.8646C102.435 37.8249 103.407 38.0263 104.261 38.4686C104.779 38.7047 105.202 38.8168 105.529 38.8049C105.893 38.7916 106.121 38.5466 106.213 38.0699C106.242 37.8867 106.434 37.1514 106.788 35.864L107.325 34.0965C108.037 31.6672 108.658 29.7146 109.187 28.2387C109.716 26.7628 110.367 25.1369 111.14 23.3608C111.476 22.5838 111.837 22.0062 112.224 21.628C112.611 21.2498 112.969 21.0729 113.297 21.0974C113.77 21.0802 114.285 21.2253 114.843 21.5328C115.435 21.8026 115.831 22.1705 116.03 22.6367C116.148 22.8873 116.214 23.1944 116.227 23.5581C116.242 23.9582 116.148 24.3804 115.946 24.8247C115.06 26.4956 113.993 29.211 112.746 32.9708C111.499 36.7305 110.543 39.9881 109.879 42.7434C109.623 43.736 109.455 45.1077 109.373 46.8586C109.327 48.6082 109.335 50.3195 109.396 51.9924C109.454 53.5926 109.545 54.5907 109.668 54.9868C109.749 55.2024 109.796 55.492 109.809 55.8556C109.832 56.4739 109.629 56.9001 109.2 57.1341C108.81 57.4033 108.288 57.5861 107.636 57.6826ZM98.3951 51.4093C99.2196 51.0516 100.127 50.4723 101.118 49.6716C102.18 48.8318 102.936 48.0942 103.386 47.4587C103.873 46.822 104.244 46.0255 104.501 45.0694C104.567 44.8849 104.594 44.629 104.582 44.3017C104.558 43.6471 104.227 43.0582 103.589 42.5352C103.215 42.2575 102.792 42.1272 102.319 42.1444C101.555 42.1722 100.769 42.6013 99.9621 43.4319C99.0483 44.3391 98.3203 45.3488 97.7781 46.461C97.2346 47.5368 96.7965 49.0094 96.464 50.8787C96.4005 51.1359 96.4448 51.3528 96.5969 51.5293C96.7476 51.6695 96.9867 51.7336 97.314 51.7217C97.5685 51.7125 97.9289 51.6083 98.3951 51.4093Z" fill="url(#paint15_linear)"/>
<path d="M115.867 55.1983C115.75 54.9841 115.431 54.7044 114.908 54.3592C114.386 54.0141 114.123 53.8051 114.121 53.7324C114.115 53.5869 114.017 53.3902 113.826 53.1422C113.67 52.8566 113.515 52.6073 113.362 52.3944C113.06 52.114 113.226 51.1612 113.859 49.5359C114.492 47.9106 115.35 45.9857 116.435 43.7613C116.645 43.5352 116.904 43.1434 117.211 42.586C117.555 42.0273 117.78 41.7095 117.887 41.6328C117.881 41.4874 117.931 41.3581 118.036 41.245C118.14 41.0956 118.265 41.0182 118.41 41.0129L118.815 40.1242C118.949 39.7916 119.629 38.9839 120.857 37.7011C122.085 36.4183 123.055 35.5455 123.766 35.0826C124.44 34.5847 125.177 34.3212 125.977 34.2921C126.85 34.2604 127.605 34.4878 128.241 34.9745L129.76 36.1756C130.884 37.0451 131.522 37.55 131.672 37.6901L133.756 39.4169L132.928 42.1782C132.636 43.1721 132.507 44.1054 132.538 44.9782C132.589 46.3602 133.017 47.6374 133.825 48.8097C134.021 49.2031 134.269 49.5037 134.568 49.7113C134.903 49.9176 135.326 50.0479 135.838 50.1021C136.644 50.2184 137.058 50.6039 137.082 51.2586C137.111 52.0586 136.987 52.664 136.711 53.0746C136.435 53.4852 136.098 53.7524 135.702 53.876C135.123 53.9699 134.724 54.0209 134.506 54.0288C133.451 54.0672 132.478 53.8295 131.585 53.3157C130.692 52.8019 129.895 51.9023 129.193 50.6169C129.039 50.404 128.825 50.0112 128.549 49.4386C128.31 48.8646 128.168 48.4692 128.124 48.2523C127.882 48.6253 127.481 49.1133 126.92 49.7163C123.312 53.6348 120.344 55.6364 118.017 55.721C117.217 55.7501 116.5 55.5759 115.867 55.1983ZM118.703 50.5614C119.288 50.613 120.391 49.9174 122.014 48.4745C122.19 48.3225 122.384 48.1515 122.596 47.9618C122.806 47.7356 123.035 47.5088 123.281 47.2813C124.269 46.4079 125.026 45.6884 125.552 45.1231C126.112 44.52 126.669 43.8079 127.222 42.9866L128.351 40.9791C127.958 40.1923 127.611 39.6768 127.311 39.4328C127.01 39.1525 126.713 39.0176 126.422 39.0282C125.695 39.0546 124.81 39.7423 123.766 41.0912C122.722 42.4038 121.483 44.3971 120.051 47.0711C119.675 47.7403 119.373 48.4432 119.144 49.1798C118.915 49.88 118.768 50.3406 118.703 50.5614Z" fill="url(#paint16_linear)"/>
<path d="M158.884 41.9989C158.905 42.5808 158.668 44.0825 158.173 46.5039C158.113 46.8339 157.975 47.549 157.76 48.6493C157.58 49.7119 157.482 50.5166 157.465 51.0634C157.48 51.4635 157.568 51.8791 157.729 52.3102C157.925 52.7036 158.025 52.9367 158.028 53.0094C158.041 53.3731 157.89 53.7427 157.576 54.1183C157.261 54.4575 156.849 54.6364 156.34 54.6549C155.43 54.688 154.635 54.3346 153.952 53.5946C153.268 52.8184 152.903 51.7938 152.857 50.5209C152.817 49.4299 153.143 47.3788 153.835 44.3675C153.893 43.9648 153.937 43.6719 153.967 43.4887C154.032 43.2679 154.062 43.0847 154.056 42.9392C154.05 42.7574 153.992 42.6685 153.883 42.6724C153.628 42.6817 153.271 42.8768 152.811 43.2576C152.351 43.6021 151.855 44.0025 151.326 44.4588L150.004 45.654C149.435 46.0388 148.253 47.0832 146.458 48.7872C146.21 48.9783 145.61 49.51 144.659 50.3821C143.742 51.2166 143.211 51.6365 143.066 51.6418C142.92 51.6471 142.589 51.5499 142.072 51.3502C141.59 51.1128 141.124 50.8202 140.674 50.4724C140.261 50.1233 140.046 49.7123 140.029 49.2396C140.009 48.694 140.29 47.4274 140.874 45.4398C141.457 43.4521 142.169 41.4962 143.009 39.572C143.108 39.2771 143.215 38.727 143.331 37.9216C143.429 36.607 143.636 35.7802 143.951 35.441C144.156 35.0693 144.459 34.8763 144.859 34.8617C145.586 34.8353 146.272 35.1745 146.917 35.8793C147.598 36.5829 147.954 37.3711 147.986 38.2439C148.009 38.8621 147.857 39.687 147.53 40.7185C147.238 41.7124 147.023 42.3029 146.884 42.49C146.991 42.4133 147.202 42.2235 147.519 41.9207C147.871 41.5801 148.331 41.2174 148.9 40.8326C150.102 39.8421 151.006 39.1719 151.612 38.8221C152.217 38.4359 152.644 38.1473 152.892 37.9562C153.033 37.8418 153.14 37.7651 153.211 37.7261C153.318 37.6494 153.389 37.6104 153.425 37.6091C153.533 37.5687 153.731 37.4887 154.018 37.369C154.34 37.2117 154.591 37.1297 154.773 37.1231C155.319 37.1032 155.89 37.2827 156.486 37.6616C157.118 38.0028 157.441 38.3734 157.455 38.7735C157.459 38.8826 157.594 39.078 157.859 39.3596C158.123 39.605 158.353 39.9243 158.549 40.3178C158.744 40.6748 158.856 41.2352 158.884 41.9989Z" fill="url(#paint17_linear)"/>
<path d="M172.04 53.8108C171.61 54.0085 171.159 54.1159 170.686 54.1331C169.922 54.1609 168.987 53.9946 167.882 53.6342C167.736 53.6395 167.233 53.3119 166.371 52.6513C165.545 51.9531 165.033 51.4072 164.837 51.0138C164.378 50.4114 164.13 49.6011 164.093 48.5828C164.029 46.8372 164.561 44.4326 165.688 41.3691C166.057 40.5181 166.672 39.4033 167.533 38.0246C168.428 36.6082 169.036 35.8032 169.357 35.6094C169.464 35.5691 169.716 35.4689 170.11 35.3089C170.504 35.1125 170.95 34.8778 171.45 34.6047C171.701 34.4863 172.224 34.3398 173.018 34.1653C173.812 33.9543 174.372 33.8429 174.7 33.831C175.391 33.8059 176.164 34.0327 177.019 34.5114C177.872 34.9537 178.547 35.4936 179.044 36.1311C179.577 36.7672 179.779 37.3242 179.651 37.8023C179.62 37.9491 179.436 38.3928 179.098 39.1334C178.76 39.8376 178.486 40.3028 178.275 40.5289C178.136 40.716 177.867 40.8169 177.467 40.8314C176.994 40.8486 176.553 40.7372 176.144 40.4972C175.734 40.2572 175.503 39.9014 175.449 39.43C175.369 39.2144 175.124 38.9866 174.715 38.7466C174.342 38.5052 174.081 38.3508 173.933 38.2834C173.678 38.2927 173.342 38.5598 172.924 39.0848C172.505 39.5735 172.003 40.2836 171.418 41.2153C170.752 41.9314 170.288 42.6948 170.026 43.5055C169.799 44.2785 169.643 44.9943 169.558 45.6529C169.508 46.2737 169.45 46.6946 169.385 46.9155C169.321 47.1363 169.292 47.3559 169.3 47.5741C169.313 47.9377 169.399 48.2988 169.558 48.6572C169.715 48.9792 169.867 49.1557 170.014 49.1868C170.67 49.1994 171.683 49.0168 173.053 48.6393C174.458 48.224 175.698 47.7783 176.774 47.3022C177.271 46.9564 177.81 46.7729 178.392 46.7518C178.647 46.7425 178.903 46.7696 179.16 46.8331C179.416 46.8602 179.599 46.8899 179.709 46.9223C180.078 47.0546 180.272 47.3753 180.291 47.8844C180.308 48.3572 180.162 48.8541 179.853 49.3752C179.545 49.8962 179.105 50.331 178.535 50.6795C177.929 51.0293 177.413 51.3757 176.989 51.7189C176.564 52.0621 176.355 52.3246 176.362 52.5065C176.289 52.5091 176.146 52.5689 175.932 52.686C175.716 52.7667 175.571 52.7901 175.497 52.7564C175.098 52.8073 174.485 52.9571 173.656 53.2057C172.828 53.4544 172.289 53.656 172.04 53.8108Z" fill="url(#paint18_linear)"/>
<path d="M190.359 54.6193C186.213 54.7701 184.054 52.4816 183.882 47.7538C183.82 46.0445 184.168 44.1018 184.927 41.9257C185.72 39.7119 186.722 37.7272 187.933 35.9716C189.179 34.1784 190.427 32.9676 191.679 32.3395C192.357 31.9507 193.15 31.7397 194.059 31.7067C195.696 31.6471 197.128 31.9592 198.354 32.6429C199.616 33.2889 200.282 34.5939 200.354 36.5577C200.395 37.6851 200.058 38.9355 199.343 40.3089C198.628 41.6823 197.706 42.8629 196.577 43.8508C195.482 44.801 194.39 45.2959 193.299 45.3356C191.662 45.3951 190.261 44.9181 189.095 43.9044C188.522 45.1634 188.256 46.3566 188.297 47.484C188.33 48.3932 188.465 49.0984 188.702 49.5996C188.937 50.0644 189.455 50.2823 190.255 50.2532C191.019 50.2254 191.633 50.0938 192.098 49.8584C192.562 49.623 192.99 49.3526 193.379 49.0471C193.769 48.7416 194.07 48.5122 194.283 48.3588L194.497 48.2417L194.442 48.2437C195.084 47.8562 195.547 47.5663 195.831 47.3738C196.15 47.1437 196.418 46.9883 196.633 46.9077C197.179 46.8878 197.694 47.033 198.179 47.3431C198.663 47.6532 198.914 48.0446 198.931 48.5174C198.945 48.8811 198.639 49.4931 198.015 50.3533C197.389 51.1772 196.737 51.7654 196.058 52.1178L195.415 52.469L195.47 52.467C195.159 52.9153 194.839 53.1454 194.512 53.1573L194.075 53.1732C193.941 53.4694 193.46 53.7782 192.634 54.0996C191.845 54.4196 191.086 54.5929 190.359 54.6193ZM192.717 41.3692C193.736 41.3322 194.556 40.8654 195.179 39.9687C195.838 39.0708 196.152 38.1854 196.12 37.3126C196.106 36.9125 195.984 36.5528 195.753 36.2334C195.56 35.9127 195.299 35.7583 194.972 35.7702C194.354 35.7927 193.673 36.1088 192.931 36.7185C192.188 37.3281 191.543 38.1163 190.996 39.083L190.328 40.2544C190.471 40.1764 190.579 40.136 190.651 40.1334C190.942 40.1228 191.165 40.2422 191.32 40.4915C191.475 40.7407 191.646 40.953 191.835 41.1282C192.023 41.3034 192.317 41.3838 192.717 41.3692Z" fill="url(#paint19_linear)"/>
<path fill-rule="evenodd" clip-rule="evenodd" d="M20.0082 46.1838C15.0528 47.9065 10.9079 50.4475 8.64405 53.7174C8.10779 54.492 7.04512 54.6852 6.27051 54.149C5.49591 53.6127 5.3027 52.55 5.83896 51.7754C8.69272 47.6533 13.6207 44.7924 18.8879 42.9612C24.1912 41.1176 30.0679 40.2368 35.1039 40.2368C38.4469 40.2368 40.7598 41.1138 41.8361 43.2057C42.3229 44.1519 42.4479 45.1677 42.457 46.0634C42.4655 46.9008 42.3702 47.7733 42.2878 48.5285C42.2827 48.5748 42.2777 48.6207 42.2728 48.6661C42.182 49.5007 42.1132 50.1997 42.1341 50.826C42.1547 51.4437 42.2613 51.8499 42.4216 52.1299C42.6571 52.5413 43.3996 53.3151 46.4763 53.3151C48.7369 53.3151 53.5189 52.4236 58.7351 51.0935C63.9034 49.7755 69.2263 48.0974 72.5087 46.6386C73.3696 46.256 74.3777 46.6437 74.7603 47.5046C75.143 48.3656 74.7552 49.3737 73.8943 49.7563C70.3532 51.3301 64.8156 53.0638 59.5781 54.3994C54.3885 55.7228 49.2197 56.7268 46.4763 56.7268C43.0139 56.7268 40.629 55.8658 39.4607 53.8249C38.9192 52.8789 38.7548 51.8547 38.7243 50.9397C38.6941 50.0334 38.794 49.0976 38.881 48.2975L38.8876 48.2371C38.977 47.4147 39.0519 46.7265 39.0455 46.098C39.039 45.4611 38.9464 45.0464 38.8024 44.7666C38.617 44.4063 38.0158 43.6485 35.1039 43.6485C30.4234 43.6485 24.9276 44.4736 20.0082 46.1838Z" fill="url(#paint20_linear)"/>
<defs>
<linearGradient id="paint0_linear" x1="95.6853" y1="1.26562" x2="95.6853" y2="31.1515" gradientUnits="userSpaceOnUse">
<stop stop-color="white"/>
<stop offset="0.135417" stop-color="#DEFFF6"/>
<stop offset="0.828125" stop-color="#05F5BC"/>
<stop offset="1" stop-color="#1DBF98"/>
</linearGradient>
<linearGradient id="paint1_linear" x1="95.6853" y1="1.26562" x2="95.6853" y2="31.1515" gradientUnits="userSpaceOnUse">
<stop stop-color="white"/>
<stop offset="0.135417" stop-color="#DEFFF6"/>
<stop offset="0.828125" stop-color="#05F5BC"/>
<stop offset="1" stop-color="#1DBF98"/>
</linearGradient>
<linearGradient id="paint2_linear" x1="95.6853" y1="1.26562" x2="95.6853" y2="31.1515" gradientUnits="userSpaceOnUse">
<stop stop-color="white"/>
<stop offset="0.135417" stop-color="#DEFFF6"/>
<stop offset="0.828125" stop-color="#05F5BC"/>
<stop offset="1" stop-color="#1DBF98"/>
</linearGradient>
<linearGradient id="paint3_linear" x1="95.6853" y1="1.26562" x2="95.6853" y2="31.1515" gradientUnits="userSpaceOnUse">
<stop stop-color="white"/>
<stop offset="0.135417" stop-color="#DEFFF6"/>
<stop offset="0.828125" stop-color="#05F5BC"/>
<stop offset="1" stop-color="#1DBF98"/>
</linearGradient>
<linearGradient id="paint4_linear" x1="95.6853" y1="1.26562" x2="95.6853" y2="31.1515" gradientUnits="userSpaceOnUse">
<stop stop-color="white"/>
<stop offset="0.135417" stop-color="#DEFFF6"/>
<stop offset="0.828125" stop-color="#05F5BC"/>
<stop offset="1" stop-color="#1DBF98"/>
</linearGradient>
<linearGradient id="paint5_linear" x1="95.6853" y1="1.26562" x2="95.6853" y2="31.1515" gradientUnits="userSpaceOnUse">
<stop stop-color="white"/>
<stop offset="0.135417" stop-color="#DEFFF6"/>
<stop offset="0.828125" stop-color="#05F5BC"/>
<stop offset="1" stop-color="#1DBF98"/>
</linearGradient>
<linearGradient id="paint6_linear" x1="95.6853" y1="1.26562" x2="95.6853" y2="31.1515" gradientUnits="userSpaceOnUse">
<stop stop-color="white"/>
<stop offset="0.135417" stop-color="#DEFFF6"/>
<stop offset="0.828125" stop-color="#05F5BC"/>
<stop offset="1" stop-color="#1DBF98"/>
</linearGradient>
<linearGradient id="paint7_linear" x1="95.6853" y1="1.26562" x2="95.6853" y2="31.1515" gradientUnits="userSpaceOnUse">
<stop stop-color="#05F5BC"/>
<stop offset="0.510417" stop-color="white"/>
<stop offset="1" stop-color="#DEFFF6"/>
</linearGradient>
<linearGradient id="paint8_linear" x1="95.6853" y1="1.26562" x2="95.6853" y2="31.1515" gradientUnits="userSpaceOnUse">
<stop stop-color="#05F5BC"/>
<stop offset="0.510417" stop-color="white"/>
<stop offset="1" stop-color="#DEFFF6"/>
</linearGradient>
<linearGradient id="paint9_linear" x1="95.6853" y1="1.26562" x2="95.6853" y2="31.1515" gradientUnits="userSpaceOnUse">
<stop stop-color="#05F5BC"/>
<stop offset="0.510417" stop-color="white"/>
<stop offset="1" stop-color="#DEFFF6"/>
</linearGradient>
<linearGradient id="paint10_linear" x1="95.6853" y1="1.26562" x2="95.6853" y2="31.1515" gradientUnits="userSpaceOnUse">
<stop stop-color="#05F5BC"/>
<stop offset="0.510417" stop-color="white"/>
<stop offset="1" stop-color="#DEFFF6"/>
</linearGradient>
<linearGradient id="paint11_linear" x1="95.6853" y1="1.26562" x2="95.6853" y2="31.1515" gradientUnits="userSpaceOnUse">
<stop stop-color="#05F5BC"/>
<stop offset="0.510417" stop-color="white"/>
<stop offset="1" stop-color="#DEFFF6"/>
</linearGradient>
<linearGradient id="paint12_linear" x1="95.6853" y1="1.26562" x2="95.6853" y2="31.1515" gradientUnits="userSpaceOnUse">
<stop stop-color="#05F5BC"/>
<stop offset="0.510417" stop-color="white"/>
<stop offset="1" stop-color="#DEFFF6"/>
</linearGradient>
<linearGradient id="paint13_linear" x1="95.6853" y1="1.26562" x2="95.6853" y2="31.1515" gradientUnits="userSpaceOnUse">
<stop stop-color="#05F5BC"/>
<stop offset="0.510417" stop-color="white"/>
<stop offset="1" stop-color="#DEFFF6"/>
</linearGradient>
<linearGradient id="paint14_linear" x1="140.299" y1="34.5122" x2="140.617" y2="57.268" gradientUnits="userSpaceOnUse">
<stop stop-color="#FF86B1"/>
<stop offset="0.453125" stop-color="#FF2473"/>
<stop offset="1" stop-color="#FFE924"/>
</linearGradient>
<linearGradient id="paint15_linear" x1="140.299" y1="34.5122" x2="140.617" y2="57.268" gradientUnits="userSpaceOnUse">
<stop stop-color="#FF86B1"/>
<stop offset="0.453125" stop-color="#FF2473"/>
<stop offset="1" stop-color="#FFE924"/>
</linearGradient>
<linearGradient id="paint16_linear" x1="140.299" y1="34.5122" x2="140.617" y2="57.268" gradientUnits="userSpaceOnUse">
<stop stop-color="#FF86B1"/>
<stop offset="0.453125" stop-color="#FF2473"/>
<stop offset="1" stop-color="#FFE924"/>
</linearGradient>
<linearGradient id="paint17_linear" x1="140.299" y1="34.5122" x2="140.617" y2="57.268" gradientUnits="userSpaceOnUse">
<stop stop-color="#FF86B1"/>
<stop offset="0.453125" stop-color="#FF2473"/>
<stop offset="1" stop-color="#FFE924"/>
</linearGradient>
<linearGradient id="paint18_linear" x1="140.299" y1="34.5122" x2="140.617" y2="57.268" gradientUnits="userSpaceOnUse">
<stop stop-color="#FF86B1"/>
<stop offset="0.453125" stop-color="#FF2473"/>
<stop offset="1" stop-color="#FFE924"/>
</linearGradient>
<linearGradient id="paint19_linear" x1="140.299" y1="34.5122" x2="140.617" y2="57.268" gradientUnits="userSpaceOnUse">
<stop stop-color="#FF86B1"/>
<stop offset="0.453125" stop-color="#FF2473"/>
<stop offset="1" stop-color="#FFE924"/>
</linearGradient>
<linearGradient id="paint20_linear" x1="40.3249" y1="46.7566" x2="40.1437" y2="57.0655" gradientUnits="userSpaceOnUse">
<stop stop-color="#FF86B1"/>
<stop offset="0.453125" stop-color="#FF2473"/>
<stop offset="1" stop-color="#FFE924"/>
</linearGradient>
</defs>
</svg>
