<svg width="70" height="19" viewBox="0 0 70 19" fill="none" xmlns="http://www.w3.org/2000/svg">
<path d="M0.675781 16.875V2.28516C0.675781 1.98047 0.785156 1.72266 1.00391 1.51172C1.22266 1.30078 1.48438 1.19531 1.78906 1.19531H15.3008C15.6055 1.19531 15.8633 1.30469 16.0742 1.52344C16.293 1.74219 16.4023 2.00391 16.4023 2.30859V3.41016C16.4023 3.71484 16.293 3.97656 16.0742 4.19531C15.8633 4.40625 15.6055 4.51172 15.3008 4.51172H5.09375V8.63672H13.4023C13.707 8.63672 13.9648 8.74609 14.1758 8.96484C14.3945 9.18359 14.5039 9.44141 14.5039 9.73828V10.8516C14.5039 11.1562 14.3945 11.418 14.1758 11.6367C13.9648 11.8477 13.707 11.9531 13.4023 11.9531H5.09375V16.875C5.09375 17.1953 4.98438 17.4648 4.76562 17.6836C4.55469 17.8945 4.29688 18 3.99219 18H1.78906C1.48438 18 1.22266 17.8945 1.00391 17.6836C0.785156 17.4648 0.675781 17.1953 0.675781 16.875ZM16.1211 16.9219L19.0625 5.76562C19.8594 2.72656 22.4531 1.20313 26.8438 1.19531H33.1602C33.4492 1.19531 33.6875 1.30469 33.875 1.52344C34.0703 1.74219 34.168 1.99609 34.168 2.28516V16.9219C34.168 17.2266 34.0586 17.4844 33.8398 17.6953C33.6211 17.8984 33.3594 18 33.0547 18H30.8516C30.5312 18 30.2656 17.8984 30.0547 17.6953C29.8516 17.4844 29.75 17.2188 29.75 16.8984V13.9453H21.418L20.6328 16.8984C20.5547 17.2188 20.3789 17.4844 20.1055 17.6953C19.832 17.8984 19.543 18 19.2383 18H16.9297C16.625 18 16.4062 17.9141 16.2734 17.7422C16.1406 17.5625 16.0742 17.4062 16.0742 17.2734C16.082 17.1406 16.0977 17.0234 16.1211 16.9219ZM22.2852 10.6289H29.75V4.51172H26.4102C25.6602 4.51172 25.0039 4.72656 24.4414 5.15625C23.8867 5.57812 23.5117 6.14844 23.3164 6.86719L22.2852 10.6289ZM36.5586 9.48047C36.5586 6.50391 37.3594 4.32031 38.9609 2.92969C40.5625 1.53906 42.9141 0.84375 46.0156 0.84375C49.125 0.84375 51.4688 1.50391 53.0469 2.82422C54.6328 4.14453 55.4258 6.28125 55.4258 9.23438C55.4258 10.7969 55.1211 12.0703 54.5117 13.0547C54.082 13.7656 53.6211 14.3984 53.1289 14.9531H54.9922C55.3125 14.9531 55.5781 15.0625 55.7891 15.2812C56 15.4922 56.1055 15.75 56.1055 16.0547V17.0156C56.1055 17.3203 56 17.582 55.7891 17.8008C55.5781 18.0117 55.3125 18.1172 54.9922 18.1172H45.9922C42.9062 18.1172 40.5625 17.4219 38.9609 16.0312C37.3594 14.6406 36.5586 12.457 36.5586 9.48047ZM45.9922 14.9531C49.3359 14.9531 51.0078 13.0469 51.0078 9.23438C51.0078 7.46094 50.6133 6.14844 49.8242 5.29688C49.0352 4.4375 47.7617 4.00781 46.0039 4.00781C44.2539 4.00781 42.9766 4.47266 42.1719 5.40234C41.375 6.33203 40.9766 7.69141 40.9766 9.48047C40.9766 11.2695 41.375 12.6289 42.1719 13.5586C42.9766 14.4883 44.25 14.9531 45.9922 14.9531ZM56.832 8.70703C56.832 6.18359 58.8672 4.92188 62.9375 4.92188C67.2188 4.92188 69.3594 6.04297 69.3594 8.28516C69.3594 8.48828 69.293 8.66016 69.1602 8.80078C69.0273 8.93359 68.8555 9 68.6445 9H66.8984C66.3359 9 65.8633 8.76562 65.4805 8.29688C65.0977 7.82031 64.3438 7.58203 63.2188 7.58203C61.6719 7.58203 60.8984 7.95703 60.8984 8.70703C60.8984 9.05859 61.1992 9.35156 61.8008 9.58594C62.4102 9.82031 63.1484 10.0273 64.0156 10.207C64.8906 10.3789 65.7617 10.6016 66.6289 10.875C67.4961 11.1484 68.2305 11.5859 68.832 12.1875C69.4414 12.7812 69.7461 13.5352 69.7461 14.4492C69.7461 16.9727 67.5977 18.2344 63.3008 18.2344C59.0039 18.2344 56.8555 17.1172 56.8555 14.8828C56.8555 14.6719 56.9219 14.5 57.0547 14.3672C57.1953 14.2266 57.3711 14.1562 57.582 14.1562H59.3281C59.8906 14.1562 60.3633 14.3945 60.7461 14.8711C61.1289 15.3398 61.8828 15.5742 63.0078 15.5742C64.7969 15.5742 65.6914 15.1992 65.6914 14.4492C65.6914 14.0977 65.3867 13.8047 64.7773 13.5703C64.1758 13.3359 63.4375 13.1289 62.5625 12.9492C61.6875 12.7617 60.8164 12.5352 59.9492 12.2695C59.0898 11.9961 58.3555 11.5586 57.7461 10.957C57.1367 10.3555 56.832 9.60547 56.832 8.70703Z" fill="url(#paint0_linear)"/>
<defs>
<linearGradient id="paint0_linear" x1="35" y1="-6" x2="35" y2="25" gradientUnits="userSpaceOnUse">
<stop stop-color="#05F5BC"/>
<stop offset="0.510417" stop-color="white"/>
<stop offset="1" stop-color="#DEFFF6"/>
</linearGradient>
</defs>
</svg>
