<svg width="102" height="39" viewBox="0 0 102 39" fill="none" xmlns="http://www.w3.org/2000/svg">
<path d="M1.96 35.848C1.608 35.656 1.352 35.48 1.192 35.32C1.064 35.16 1 34.952 1 34.696C1 34.376 1.128 33.928 1.384 33.352C1.672 32.744 2.152 31.8 2.824 30.52C3.016 30.104 3.384 29.368 3.928 28.312C5.304 25.688 5.992 23.752 5.992 22.504C5.96 22.44 5.944 22.344 5.944 22.216C5.944 21.896 6.2 21.608 6.712 21.352C6.808 21.256 7.144 20.984 7.72 20.536C8.328 20.088 8.808 19.576 9.16 19C9.576 18.04 10.104 16.984 10.744 15.832C11.384 14.648 12.488 12.728 14.056 10.072C15.592 7.256 17.224 4.712 18.952 2.44C19.272 1.992 19.624 1.64 20.008 1.384C20.424 1.128 20.776 1 21.064 1C22.056 1 23.064 1.384 24.088 2.152C25.144 2.92 25.832 3.688 26.152 4.456C26.28 4.68 26.344 5.16 26.344 5.896C26.344 6.888 26.232 8.568 26.008 10.936C25.944 11.352 25.88 12.008 25.816 12.904C25.72 14.344 25.576 15.88 25.384 17.512C25.032 21.096 24.776 23.896 24.616 25.912C24.456 27.928 24.376 29.816 24.376 31.576C24.376 32.472 24.392 33.128 24.424 33.544V33.88L24.376 34.984C24.184 35.176 23.8 35.272 23.224 35.272C22.584 35.272 21.944 35.16 21.304 34.936C20.664 34.744 20.312 34.504 20.248 34.216C20.216 34.184 20.168 34.152 20.104 34.12C20.04 34.088 20.008 33.944 20.008 33.688L20.056 32.632L20.2 29.944L20.44 22.6L19.816 22.648C19.176 22.648 17.816 22.776 15.736 23.032C13.688 23.288 12.392 23.496 11.848 23.656C11.56 23.656 11.208 23.848 10.792 24.232C10.376 24.616 10.008 25.112 9.688 25.72C9.592 26.04 9.368 26.504 9.016 27.112C8.664 27.688 8.488 28.024 8.488 28.12C8.296 28.248 8.12 28.424 7.96 28.648C7.832 28.84 7.752 28.968 7.72 29.032C7.72 29.384 7.4 30.296 6.76 31.768C6.152 33.208 5.544 34.392 4.936 35.32L3.64 37.144L1.96 35.848ZM13.432 19.336C13.656 19.304 14.104 19.24 14.776 19.144C15.448 19.016 16.04 18.936 16.552 18.904C18.088 18.52 19.144 18.328 19.72 18.328C20.04 18.328 20.264 18.36 20.392 18.424C20.488 18.552 20.584 18.648 20.68 18.712C20.808 18.744 20.888 18.76 20.92 18.76C20.984 18.504 21.24 16.76 21.688 13.528C22.136 10.296 22.36 8.312 22.36 7.576C22.36 7.064 22.344 6.632 22.312 6.28C22.28 5.896 22.248 5.656 22.216 5.56C21.928 5.56 21.272 6.328 20.248 7.864C19.224 9.368 18.232 11.08 17.272 13C16.536 14.312 16.024 14.968 15.736 14.968C15.512 15.192 15.032 15.944 14.296 17.224C13.56 18.504 13.272 19.208 13.432 19.336Z" fill="url(#paint0_linear)"/>
<path d="M34.5396 33.976C33.3556 33.848 32.5716 33.336 32.1876 32.44C31.9316 32.184 31.7716 31.976 31.7076 31.816C31.6756 31.656 31.6756 31.496 31.7076 31.336C32.0916 31.336 32.3156 31.272 32.3796 31.144C32.3796 31.048 32.4276 30.984 32.5236 30.952C32.6516 30.92 32.7796 30.92 32.9076 30.952C33.7396 31.016 34.8916 30.568 36.3636 29.608C37.8676 28.648 39.4836 27.368 41.2116 25.768C42.1076 24.616 42.7156 23.8 43.0356 23.32C43.3556 22.808 43.5156 22.392 43.5156 22.072C43.5156 21.912 43.4356 21.672 43.2756 21.352C43.1156 21.096 42.8596 20.968 42.5076 20.968C41.9316 20.968 41.1476 21.288 40.1556 21.928C38.7796 22.792 37.6756 23.592 36.8436 24.328C36.0116 25.032 35.2436 25.864 34.5396 26.824C34.1236 27.368 33.7236 27.864 33.3396 28.312C32.9876 28.728 32.7476 29.016 32.6196 29.176C32.6196 29.304 32.4276 29.464 32.0436 29.656C31.6916 29.848 31.3876 29.944 31.1316 29.944C30.9716 29.88 30.7796 29.752 30.5556 29.56C30.3636 29.368 30.2516 29.144 30.2196 28.888C30.1556 28.824 30.0116 28.728 29.7876 28.6C29.5956 28.44 29.4516 28.264 29.3556 28.072C29.2596 27.88 29.2116 27.656 29.2116 27.4C29.2116 26.92 29.3716 26.104 29.6916 24.952C29.9796 23.64 30.2996 22.344 30.6516 21.064C31.0356 19.752 31.2916 19.032 31.4196 18.904C31.4516 18.84 31.5156 18.664 31.6116 18.376C31.7396 18.088 31.8036 17.784 31.8036 17.464C31.8676 17.176 31.9636 16.856 32.0916 16.504C32.2516 16.12 32.3316 15.896 32.3316 15.832C32.4916 15.704 33.0036 14.44 33.8676 12.04C33.8676 11.912 34.2196 11.064 34.9236 9.496C35.9476 7.096 36.5876 5.56 36.8436 4.888C37.0036 4.632 37.2756 4.168 37.6596 3.496C37.7236 3.4 37.8516 3.192 38.0436 2.872C38.2676 2.52 38.4436 2.312 38.5716 2.248C38.7956 2.184 39.2756 2.344 40.0116 2.728C40.7796 3.112 41.2756 3.48 41.4996 3.832C41.5316 3.896 41.5636 3.976 41.5956 4.072C41.6596 4.136 41.6916 4.216 41.6916 4.312C41.6916 4.472 41.5956 4.76 41.4036 5.176C41.2436 5.592 41.0516 6.024 40.8276 6.472C40.6356 6.888 40.4916 7.208 40.3956 7.432L39.0036 10.312C37.6596 13.256 36.5076 16.12 35.5476 18.904C35.2596 19.8 35.0036 20.52 34.7796 21.064L34.5396 22.12L35.7876 20.728C36.3636 20.152 37.0836 19.56 37.9476 18.952C38.3316 18.696 38.8916 18.408 39.6276 18.088C40.3636 17.768 40.8756 17.576 41.1636 17.512C42.1876 17.256 43.0676 17.128 43.8036 17.128C44.9876 17.128 46.0756 17.976 47.0676 19.672C47.3556 20.184 47.4996 20.84 47.4996 21.64C47.4996 22.216 47.4196 22.792 47.2596 23.368C47.0996 23.944 46.8916 24.456 46.6356 24.904C46.4756 25.032 46.3156 25.208 46.1556 25.432C45.9956 25.624 45.9156 25.784 45.9156 25.912C45.8836 26.104 45.6116 26.536 45.0996 27.208C44.5876 27.88 44.0276 28.552 43.4196 29.224C42.5876 30.088 41.4836 30.952 40.1076 31.816C38.7636 32.68 37.6436 33.272 36.7476 33.592C36.5556 33.624 36.1876 33.688 35.6436 33.784C35.1316 33.848 34.7636 33.912 34.5396 33.976Z" fill="url(#paint1_linear)"/>
<path d="M52.9398 33.928C52.5558 33.928 52.2518 33.864 52.0278 33.736C51.8038 33.608 51.4838 33.368 51.0678 33.016C50.4278 32.344 49.9318 31.656 49.5798 30.952C49.2278 30.216 49.0998 29.576 49.1958 29.032C49.2918 28.808 49.3238 28.584 49.2918 28.36C49.2918 28.136 49.2918 27.992 49.2918 27.928C49.1638 27.8 49.0998 27.72 49.0998 27.688C49.0998 27.624 49.1318 27.576 49.1958 27.544C49.2598 27.48 49.3078 27.416 49.3398 27.352C49.5318 27.352 49.5957 27.176 49.5317 26.824C49.4677 26.568 49.5798 26.008 49.8678 25.144C50.1558 24.28 50.5238 23.48 50.9718 22.744C51.3238 22.168 51.8358 21.448 52.5078 20.584C53.2118 19.72 53.8358 19.064 54.3798 18.616C55.9798 17.24 57.4198 16.408 58.6998 16.12C59.3398 15.96 59.9638 15.88 60.5718 15.88C61.4998 15.88 62.2198 16.136 62.7318 16.648C63.4358 16.936 63.9478 17.352 64.2677 17.896C64.5878 18.44 64.7958 19.16 64.8918 20.056C64.9237 20.248 64.9398 20.568 64.9398 21.016C64.9398 23.384 64.0438 25.848 62.2518 28.408C61.5158 29.464 60.7798 30.312 60.0438 30.952C59.3078 31.592 58.4118 32.232 57.3558 32.872C56.7798 33.256 56.1718 33.512 55.5318 33.64C54.8918 33.768 54.0278 33.864 52.9398 33.928ZM57.8358 28.072C58.4438 27.528 58.8758 26.984 59.1318 26.44C59.4198 25.864 59.8198 24.872 60.3318 23.464C60.5238 23.176 60.6198 22.6 60.6198 21.736C60.6198 20.968 60.5078 20.536 60.2838 20.44C60.1238 20.312 59.9318 20.248 59.7078 20.248C59.4198 20.248 58.9558 20.472 58.3158 20.92C57.1958 21.88 56.2518 22.888 55.4838 23.944C54.7478 24.968 54.2358 26.152 53.9478 27.496C53.9158 27.624 53.8998 27.816 53.8998 28.072C53.8998 29.16 54.2838 29.704 55.0518 29.704C55.7878 29.704 56.7158 29.16 57.8358 28.072Z" fill="url(#paint2_linear)"/>
<path d="M78.7304 34.552C78.5064 34.68 78.2024 34.632 77.8184 34.408C77.4664 34.184 77.1144 33.848 76.7624 33.4C76.5064 32.984 76.3304 32.584 76.2344 32.2C76.1384 31.784 76.0904 31.192 76.0904 30.424L76.1384 29.32C76.1384 29.032 76.0904 28.888 75.9944 28.888C75.8984 28.888 75.6744 29.048 75.3224 29.368C75.0024 29.656 74.5864 30.04 74.0744 30.52C73.1144 31.448 72.2984 32.168 71.6264 32.68C70.9864 33.16 70.4584 33.384 70.0424 33.352C69.6904 33.352 69.1944 33.048 68.5544 32.44C67.9144 31.8 67.4824 31.192 67.2584 30.616C67.1624 30.232 67.1144 29.8 67.1144 29.32C67.1144 27.848 67.4344 26.056 68.0744 23.944C68.7144 21.832 69.4664 20.008 70.3304 18.472C71.1944 16.904 71.9144 16.152 72.4904 16.216C73.0024 16.28 73.4504 16.536 73.8344 16.984C74.2504 17.4 74.5864 17.912 74.8424 18.52C74.9384 18.712 74.9864 18.872 74.9864 19C74.9864 19.224 74.8584 19.448 74.6024 19.672C74.1224 20.312 73.5144 21.368 72.7784 22.84C72.0424 24.28 71.4504 25.608 71.0024 26.824C70.5544 28.008 70.4424 28.6 70.6664 28.6C71.1144 28.6 71.5144 28.488 71.8664 28.264C72.2504 28.04 72.7464 27.64 73.3544 27.064C74.5064 25.912 75.6264 24.44 76.7144 22.648C78.0584 20.504 78.7944 19.256 78.9224 18.904L79.4504 17.944C79.7704 17.304 80.0104 16.888 80.1704 16.696C80.3304 16.472 80.5224 16.328 80.7464 16.264H81.8504C82.0424 16.296 82.2664 16.44 82.5224 16.696C82.8104 16.824 83.0824 17 83.3384 17.224C83.5944 17.448 83.7224 17.64 83.7224 17.8L82.9544 19.576L82.5224 20.584C81.6584 22.504 81.0024 24.04 80.5544 25.192C80.1064 26.312 79.7704 27.48 79.5464 28.696C79.5144 28.856 79.4984 29.128 79.4984 29.512C79.4984 30.472 79.5944 31.144 79.7864 31.528C80.0744 32.104 80.3624 32.52 80.6504 32.776C80.9064 32.968 80.9064 33.208 80.6504 33.496C80.3944 33.752 80.0264 33.992 79.5464 34.216C79.0984 34.44 78.8264 34.552 78.7304 34.552Z" fill="url(#paint3_linear)"/>
<path d="M91.072 34.552C90.368 34.36 89.456 33.768 88.336 32.776C87.792 32.072 87.472 31.448 87.376 30.904C87.28 30.328 87.232 29.208 87.232 27.544C87.232 26.776 87.616 24.856 88.384 21.784C88.416 21.656 88.528 21.224 88.72 20.488C88.816 20.136 88.688 19.912 88.336 19.816C87.984 19.72 87.488 19.672 86.848 19.672C86.304 19.672 85.984 19.64 85.888 19.576C85.792 19.544 85.728 19.4 85.696 19.144C85.696 18.888 85.696 18.712 85.696 18.616C85.696 18.52 85.616 18.424 85.456 18.328C85.328 18.232 85.232 18.136 85.168 18.04C85.072 17.912 85.152 17.672 85.408 17.32C85.664 16.968 85.952 16.76 86.272 16.696C86.464 16.664 86.88 16.616 87.52 16.552C88.16 16.488 88.768 16.36 89.344 16.168C89.952 15.976 90.4 15.704 90.688 15.352C91.104 14.264 91.584 13.112 92.128 11.896C92.704 10.68 93.104 9.96 93.328 9.736C93.84 9.48 94.304 9.352 94.72 9.352C95.424 9.352 95.968 9.64 96.352 10.216C96.448 10.344 96.56 10.472 96.688 10.6C96.816 10.728 96.88 10.872 96.88 11.032C96.88 11.256 96.768 11.608 96.544 12.088C96.352 12.568 95.952 13.352 95.344 14.44L94.72 15.64C94.816 15.672 95.04 15.688 95.392 15.688C95.744 15.688 96.032 15.672 96.256 15.64C96.96 15.512 97.504 15.448 97.888 15.448C98.176 15.448 98.384 15.464 98.512 15.496C99.856 15.496 100.592 16.232 100.72 17.704C100.784 18.088 100.64 18.408 100.288 18.664C99.968 18.888 99.392 19 98.56 19C95.264 19.128 93.6 19.272 93.568 19.432C93.408 19.528 93.152 20.024 92.8 20.92C92.448 21.816 92.16 22.664 91.936 23.464C91.552 25.128 91.36 26.696 91.36 28.168C91.36 29.576 91.568 30.488 91.984 30.904C92.112 31.032 92.288 31.096 92.512 31.096C93.088 31.096 93.904 30.664 94.96 29.8C95.312 29.48 95.696 29.32 96.112 29.32C96.464 29.32 96.736 29.448 96.928 29.704C97.152 29.96 97.264 30.296 97.264 30.712C97.264 31.192 97.104 31.656 96.784 32.104C96.304 32.84 95.584 33.448 94.624 33.928C93.664 34.408 92.752 34.648 91.888 34.648C91.504 34.648 91.232 34.616 91.072 34.552Z" fill="url(#paint4_linear)"/>
<mask id="path-2-outside-1" maskUnits="userSpaceOnUse" x="0" y="0" width="102" height="39" fill="black">
<rect fill="white" width="102" height="39"/>
<path d="M1.96 35.848C1.608 35.656 1.352 35.48 1.192 35.32C1.064 35.16 1 34.952 1 34.696C1 34.376 1.128 33.928 1.384 33.352C1.672 32.744 2.152 31.8 2.824 30.52C3.016 30.104 3.384 29.368 3.928 28.312C5.304 25.688 5.992 23.752 5.992 22.504C5.96 22.44 5.944 22.344 5.944 22.216C5.944 21.896 6.2 21.608 6.712 21.352C6.808 21.256 7.144 20.984 7.72 20.536C8.328 20.088 8.808 19.576 9.16 19C9.576 18.04 10.104 16.984 10.744 15.832C11.384 14.648 12.488 12.728 14.056 10.072C15.592 7.256 17.224 4.712 18.952 2.44C19.272 1.992 19.624 1.64 20.008 1.384C20.424 1.128 20.776 1 21.064 1C22.056 1 23.064 1.384 24.088 2.152C25.144 2.92 25.832 3.688 26.152 4.456C26.28 4.68 26.344 5.16 26.344 5.896C26.344 6.888 26.232 8.568 26.008 10.936C25.944 11.352 25.88 12.008 25.816 12.904C25.72 14.344 25.576 15.88 25.384 17.512C25.032 21.096 24.776 23.896 24.616 25.912C24.456 27.928 24.376 29.816 24.376 31.576C24.376 32.472 24.392 33.128 24.424 33.544V33.88L24.376 34.984C24.184 35.176 23.8 35.272 23.224 35.272C22.584 35.272 21.944 35.16 21.304 34.936C20.664 34.744 20.312 34.504 20.248 34.216C20.216 34.184 20.168 34.152 20.104 34.12C20.04 34.088 20.008 33.944 20.008 33.688L20.056 32.632L20.2 29.944L20.44 22.6L19.816 22.648C19.176 22.648 17.816 22.776 15.736 23.032C13.688 23.288 12.392 23.496 11.848 23.656C11.56 23.656 11.208 23.848 10.792 24.232C10.376 24.616 10.008 25.112 9.688 25.72C9.592 26.04 9.368 26.504 9.016 27.112C8.664 27.688 8.488 28.024 8.488 28.12C8.296 28.248 8.12 28.424 7.96 28.648C7.832 28.84 7.752 28.968 7.72 29.032C7.72 29.384 7.4 30.296 6.76 31.768C6.152 33.208 5.544 34.392 4.936 35.32L3.64 37.144L1.96 35.848ZM13.432 19.336C13.656 19.304 14.104 19.24 14.776 19.144C15.448 19.016 16.04 18.936 16.552 18.904C18.088 18.52 19.144 18.328 19.72 18.328C20.04 18.328 20.264 18.36 20.392 18.424C20.488 18.552 20.584 18.648 20.68 18.712C20.808 18.744 20.888 18.76 20.92 18.76C20.984 18.504 21.24 16.76 21.688 13.528C22.136 10.296 22.36 8.312 22.36 7.576C22.36 7.064 22.344 6.632 22.312 6.28C22.28 5.896 22.248 5.656 22.216 5.56C21.928 5.56 21.272 6.328 20.248 7.864C19.224 9.368 18.232 11.08 17.272 13C16.536 14.312 16.024 14.968 15.736 14.968C15.512 15.192 15.032 15.944 14.296 17.224C13.56 18.504 13.272 19.208 13.432 19.336Z"/>
<path d="M34.5396 33.976C33.3556 33.848 32.5716 33.336 32.1876 32.44C31.9316 32.184 31.7716 31.976 31.7076 31.816C31.6756 31.656 31.6756 31.496 31.7076 31.336C32.0916 31.336 32.3156 31.272 32.3796 31.144C32.3796 31.048 32.4276 30.984 32.5236 30.952C32.6516 30.92 32.7796 30.92 32.9076 30.952C33.7396 31.016 34.8916 30.568 36.3636 29.608C37.8676 28.648 39.4836 27.368 41.2116 25.768C42.1076 24.616 42.7156 23.8 43.0356 23.32C43.3556 22.808 43.5156 22.392 43.5156 22.072C43.5156 21.912 43.4356 21.672 43.2756 21.352C43.1156 21.096 42.8596 20.968 42.5076 20.968C41.9316 20.968 41.1476 21.288 40.1556 21.928C38.7796 22.792 37.6756 23.592 36.8436 24.328C36.0116 25.032 35.2436 25.864 34.5396 26.824C34.1236 27.368 33.7236 27.864 33.3396 28.312C32.9876 28.728 32.7476 29.016 32.6196 29.176C32.6196 29.304 32.4276 29.464 32.0436 29.656C31.6916 29.848 31.3876 29.944 31.1316 29.944C30.9716 29.88 30.7796 29.752 30.5556 29.56C30.3636 29.368 30.2516 29.144 30.2196 28.888C30.1556 28.824 30.0116 28.728 29.7876 28.6C29.5956 28.44 29.4516 28.264 29.3556 28.072C29.2596 27.88 29.2116 27.656 29.2116 27.4C29.2116 26.92 29.3716 26.104 29.6916 24.952C29.9796 23.64 30.2996 22.344 30.6516 21.064C31.0356 19.752 31.2916 19.032 31.4196 18.904C31.4516 18.84 31.5156 18.664 31.6116 18.376C31.7396 18.088 31.8036 17.784 31.8036 17.464C31.8676 17.176 31.9636 16.856 32.0916 16.504C32.2516 16.12 32.3316 15.896 32.3316 15.832C32.4916 15.704 33.0036 14.44 33.8676 12.04C33.8676 11.912 34.2196 11.064 34.9236 9.496C35.9476 7.096 36.5876 5.56 36.8436 4.888C37.0036 4.632 37.2756 4.168 37.6596 3.496C37.7236 3.4 37.8516 3.192 38.0436 2.872C38.2676 2.52 38.4436 2.312 38.5716 2.248C38.7956 2.184 39.2756 2.344 40.0116 2.728C40.7796 3.112 41.2756 3.48 41.4996 3.832C41.5316 3.896 41.5636 3.976 41.5956 4.072C41.6596 4.136 41.6916 4.216 41.6916 4.312C41.6916 4.472 41.5956 4.76 41.4036 5.176C41.2436 5.592 41.0516 6.024 40.8276 6.472C40.6356 6.888 40.4916 7.208 40.3956 7.432L39.0036 10.312C37.6596 13.256 36.5076 16.12 35.5476 18.904C35.2596 19.8 35.0036 20.52 34.7796 21.064L34.5396 22.12L35.7876 20.728C36.3636 20.152 37.0836 19.56 37.9476 18.952C38.3316 18.696 38.8916 18.408 39.6276 18.088C40.3636 17.768 40.8756 17.576 41.1636 17.512C42.1876 17.256 43.0676 17.128 43.8036 17.128C44.9876 17.128 46.0756 17.976 47.0676 19.672C47.3556 20.184 47.4996 20.84 47.4996 21.64C47.4996 22.216 47.4196 22.792 47.2596 23.368C47.0996 23.944 46.8916 24.456 46.6356 24.904C46.4756 25.032 46.3156 25.208 46.1556 25.432C45.9956 25.624 45.9156 25.784 45.9156 25.912C45.8836 26.104 45.6116 26.536 45.0996 27.208C44.5876 27.88 44.0276 28.552 43.4196 29.224C42.5876 30.088 41.4836 30.952 40.1076 31.816C38.7636 32.68 37.6436 33.272 36.7476 33.592C36.5556 33.624 36.1876 33.688 35.6436 33.784C35.1316 33.848 34.7636 33.912 34.5396 33.976Z"/>
<path d="M52.9398 33.928C52.5558 33.928 52.2518 33.864 52.0278 33.736C51.8038 33.608 51.4838 33.368 51.0678 33.016C50.4278 32.344 49.9318 31.656 49.5798 30.952C49.2278 30.216 49.0998 29.576 49.1958 29.032C49.2918 28.808 49.3238 28.584 49.2918 28.36C49.2918 28.136 49.2918 27.992 49.2918 27.928C49.1638 27.8 49.0998 27.72 49.0998 27.688C49.0998 27.624 49.1318 27.576 49.1958 27.544C49.2598 27.48 49.3078 27.416 49.3398 27.352C49.5318 27.352 49.5957 27.176 49.5317 26.824C49.4677 26.568 49.5798 26.008 49.8678 25.144C50.1558 24.28 50.5238 23.48 50.9718 22.744C51.3238 22.168 51.8358 21.448 52.5078 20.584C53.2118 19.72 53.8358 19.064 54.3798 18.616C55.9798 17.24 57.4198 16.408 58.6998 16.12C59.3398 15.96 59.9638 15.88 60.5718 15.88C61.4998 15.88 62.2198 16.136 62.7318 16.648C63.4358 16.936 63.9478 17.352 64.2677 17.896C64.5878 18.44 64.7958 19.16 64.8918 20.056C64.9237 20.248 64.9398 20.568 64.9398 21.016C64.9398 23.384 64.0438 25.848 62.2518 28.408C61.5158 29.464 60.7798 30.312 60.0438 30.952C59.3078 31.592 58.4118 32.232 57.3558 32.872C56.7798 33.256 56.1718 33.512 55.5318 33.64C54.8918 33.768 54.0278 33.864 52.9398 33.928ZM57.8358 28.072C58.4438 27.528 58.8758 26.984 59.1318 26.44C59.4198 25.864 59.8198 24.872 60.3318 23.464C60.5238 23.176 60.6198 22.6 60.6198 21.736C60.6198 20.968 60.5078 20.536 60.2838 20.44C60.1238 20.312 59.9318 20.248 59.7078 20.248C59.4198 20.248 58.9558 20.472 58.3158 20.92C57.1958 21.88 56.2518 22.888 55.4838 23.944C54.7478 24.968 54.2358 26.152 53.9478 27.496C53.9158 27.624 53.8998 27.816 53.8998 28.072C53.8998 29.16 54.2838 29.704 55.0518 29.704C55.7878 29.704 56.7158 29.16 57.8358 28.072Z"/>
<path d="M78.7304 34.552C78.5064 34.68 78.2024 34.632 77.8184 34.408C77.4664 34.184 77.1144 33.848 76.7624 33.4C76.5064 32.984 76.3304 32.584 76.2344 32.2C76.1384 31.784 76.0904 31.192 76.0904 30.424L76.1384 29.32C76.1384 29.032 76.0904 28.888 75.9944 28.888C75.8984 28.888 75.6744 29.048 75.3224 29.368C75.0024 29.656 74.5864 30.04 74.0744 30.52C73.1144 31.448 72.2984 32.168 71.6264 32.68C70.9864 33.16 70.4584 33.384 70.0424 33.352C69.6904 33.352 69.1944 33.048 68.5544 32.44C67.9144 31.8 67.4824 31.192 67.2584 30.616C67.1624 30.232 67.1144 29.8 67.1144 29.32C67.1144 27.848 67.4344 26.056 68.0744 23.944C68.7144 21.832 69.4664 20.008 70.3304 18.472C71.1944 16.904 71.9144 16.152 72.4904 16.216C73.0024 16.28 73.4504 16.536 73.8344 16.984C74.2504 17.4 74.5864 17.912 74.8424 18.52C74.9384 18.712 74.9864 18.872 74.9864 19C74.9864 19.224 74.8584 19.448 74.6024 19.672C74.1224 20.312 73.5144 21.368 72.7784 22.84C72.0424 24.28 71.4504 25.608 71.0024 26.824C70.5544 28.008 70.4424 28.6 70.6664 28.6C71.1144 28.6 71.5144 28.488 71.8664 28.264C72.2504 28.04 72.7464 27.64 73.3544 27.064C74.5064 25.912 75.6264 24.44 76.7144 22.648C78.0584 20.504 78.7944 19.256 78.9224 18.904L79.4504 17.944C79.7704 17.304 80.0104 16.888 80.1704 16.696C80.3304 16.472 80.5224 16.328 80.7464 16.264H81.8504C82.0424 16.296 82.2664 16.44 82.5224 16.696C82.8104 16.824 83.0824 17 83.3384 17.224C83.5944 17.448 83.7224 17.64 83.7224 17.8L82.9544 19.576L82.5224 20.584C81.6584 22.504 81.0024 24.04 80.5544 25.192C80.1064 26.312 79.7704 27.48 79.5464 28.696C79.5144 28.856 79.4984 29.128 79.4984 29.512C79.4984 30.472 79.5944 31.144 79.7864 31.528C80.0744 32.104 80.3624 32.52 80.6504 32.776C80.9064 32.968 80.9064 33.208 80.6504 33.496C80.3944 33.752 80.0264 33.992 79.5464 34.216C79.0984 34.44 78.8264 34.552 78.7304 34.552Z"/>
<path d="M91.072 34.552C90.368 34.36 89.456 33.768 88.336 32.776C87.792 32.072 87.472 31.448 87.376 30.904C87.28 30.328 87.232 29.208 87.232 27.544C87.232 26.776 87.616 24.856 88.384 21.784C88.416 21.656 88.528 21.224 88.72 20.488C88.816 20.136 88.688 19.912 88.336 19.816C87.984 19.72 87.488 19.672 86.848 19.672C86.304 19.672 85.984 19.64 85.888 19.576C85.792 19.544 85.728 19.4 85.696 19.144C85.696 18.888 85.696 18.712 85.696 18.616C85.696 18.52 85.616 18.424 85.456 18.328C85.328 18.232 85.232 18.136 85.168 18.04C85.072 17.912 85.152 17.672 85.408 17.32C85.664 16.968 85.952 16.76 86.272 16.696C86.464 16.664 86.88 16.616 87.52 16.552C88.16 16.488 88.768 16.36 89.344 16.168C89.952 15.976 90.4 15.704 90.688 15.352C91.104 14.264 91.584 13.112 92.128 11.896C92.704 10.68 93.104 9.96 93.328 9.736C93.84 9.48 94.304 9.352 94.72 9.352C95.424 9.352 95.968 9.64 96.352 10.216C96.448 10.344 96.56 10.472 96.688 10.6C96.816 10.728 96.88 10.872 96.88 11.032C96.88 11.256 96.768 11.608 96.544 12.088C96.352 12.568 95.952 13.352 95.344 14.44L94.72 15.64C94.816 15.672 95.04 15.688 95.392 15.688C95.744 15.688 96.032 15.672 96.256 15.64C96.96 15.512 97.504 15.448 97.888 15.448C98.176 15.448 98.384 15.464 98.512 15.496C99.856 15.496 100.592 16.232 100.72 17.704C100.784 18.088 100.64 18.408 100.288 18.664C99.968 18.888 99.392 19 98.56 19C95.264 19.128 93.6 19.272 93.568 19.432C93.408 19.528 93.152 20.024 92.8 20.92C92.448 21.816 92.16 22.664 91.936 23.464C91.552 25.128 91.36 26.696 91.36 28.168C91.36 29.576 91.568 30.488 91.984 30.904C92.112 31.032 92.288 31.096 92.512 31.096C93.088 31.096 93.904 30.664 94.96 29.8C95.312 29.48 95.696 29.32 96.112 29.32C96.464 29.32 96.736 29.448 96.928 29.704C97.152 29.96 97.264 30.296 97.264 30.712C97.264 31.192 97.104 31.656 96.784 32.104C96.304 32.84 95.584 33.448 94.624 33.928C93.664 34.408 92.752 34.648 91.888 34.648C91.504 34.648 91.232 34.616 91.072 34.552Z"/>
</mask>
<path d="M1.96 35.848C1.608 35.656 1.352 35.48 1.192 35.32C1.064 35.16 1 34.952 1 34.696C1 34.376 1.128 33.928 1.384 33.352C1.672 32.744 2.152 31.8 2.824 30.52C3.016 30.104 3.384 29.368 3.928 28.312C5.304 25.688 5.992 23.752 5.992 22.504C5.96 22.44 5.944 22.344 5.944 22.216C5.944 21.896 6.2 21.608 6.712 21.352C6.808 21.256 7.144 20.984 7.72 20.536C8.328 20.088 8.808 19.576 9.16 19C9.576 18.04 10.104 16.984 10.744 15.832C11.384 14.648 12.488 12.728 14.056 10.072C15.592 7.256 17.224 4.712 18.952 2.44C19.272 1.992 19.624 1.64 20.008 1.384C20.424 1.128 20.776 1 21.064 1C22.056 1 23.064 1.384 24.088 2.152C25.144 2.92 25.832 3.688 26.152 4.456C26.28 4.68 26.344 5.16 26.344 5.896C26.344 6.888 26.232 8.568 26.008 10.936C25.944 11.352 25.88 12.008 25.816 12.904C25.72 14.344 25.576 15.88 25.384 17.512C25.032 21.096 24.776 23.896 24.616 25.912C24.456 27.928 24.376 29.816 24.376 31.576C24.376 32.472 24.392 33.128 24.424 33.544V33.88L24.376 34.984C24.184 35.176 23.8 35.272 23.224 35.272C22.584 35.272 21.944 35.16 21.304 34.936C20.664 34.744 20.312 34.504 20.248 34.216C20.216 34.184 20.168 34.152 20.104 34.12C20.04 34.088 20.008 33.944 20.008 33.688L20.056 32.632L20.2 29.944L20.44 22.6L19.816 22.648C19.176 22.648 17.816 22.776 15.736 23.032C13.688 23.288 12.392 23.496 11.848 23.656C11.56 23.656 11.208 23.848 10.792 24.232C10.376 24.616 10.008 25.112 9.688 25.72C9.592 26.04 9.368 26.504 9.016 27.112C8.664 27.688 8.488 28.024 8.488 28.12C8.296 28.248 8.12 28.424 7.96 28.648C7.832 28.84 7.752 28.968 7.72 29.032C7.72 29.384 7.4 30.296 6.76 31.768C6.152 33.208 5.544 34.392 4.936 35.32L3.64 37.144L1.96 35.848ZM13.432 19.336C13.656 19.304 14.104 19.24 14.776 19.144C15.448 19.016 16.04 18.936 16.552 18.904C18.088 18.52 19.144 18.328 19.72 18.328C20.04 18.328 20.264 18.36 20.392 18.424C20.488 18.552 20.584 18.648 20.68 18.712C20.808 18.744 20.888 18.76 20.92 18.76C20.984 18.504 21.24 16.76 21.688 13.528C22.136 10.296 22.36 8.312 22.36 7.576C22.36 7.064 22.344 6.632 22.312 6.28C22.28 5.896 22.248 5.656 22.216 5.56C21.928 5.56 21.272 6.328 20.248 7.864C19.224 9.368 18.232 11.08 17.272 13C16.536 14.312 16.024 14.968 15.736 14.968C15.512 15.192 15.032 15.944 14.296 17.224C13.56 18.504 13.272 19.208 13.432 19.336Z" stroke="#FFE924" stroke-width="2" mask="url(#path-2-outside-1)"/>
<path d="M34.5396 33.976C33.3556 33.848 32.5716 33.336 32.1876 32.44C31.9316 32.184 31.7716 31.976 31.7076 31.816C31.6756 31.656 31.6756 31.496 31.7076 31.336C32.0916 31.336 32.3156 31.272 32.3796 31.144C32.3796 31.048 32.4276 30.984 32.5236 30.952C32.6516 30.92 32.7796 30.92 32.9076 30.952C33.7396 31.016 34.8916 30.568 36.3636 29.608C37.8676 28.648 39.4836 27.368 41.2116 25.768C42.1076 24.616 42.7156 23.8 43.0356 23.32C43.3556 22.808 43.5156 22.392 43.5156 22.072C43.5156 21.912 43.4356 21.672 43.2756 21.352C43.1156 21.096 42.8596 20.968 42.5076 20.968C41.9316 20.968 41.1476 21.288 40.1556 21.928C38.7796 22.792 37.6756 23.592 36.8436 24.328C36.0116 25.032 35.2436 25.864 34.5396 26.824C34.1236 27.368 33.7236 27.864 33.3396 28.312C32.9876 28.728 32.7476 29.016 32.6196 29.176C32.6196 29.304 32.4276 29.464 32.0436 29.656C31.6916 29.848 31.3876 29.944 31.1316 29.944C30.9716 29.88 30.7796 29.752 30.5556 29.56C30.3636 29.368 30.2516 29.144 30.2196 28.888C30.1556 28.824 30.0116 28.728 29.7876 28.6C29.5956 28.44 29.4516 28.264 29.3556 28.072C29.2596 27.88 29.2116 27.656 29.2116 27.4C29.2116 26.92 29.3716 26.104 29.6916 24.952C29.9796 23.64 30.2996 22.344 30.6516 21.064C31.0356 19.752 31.2916 19.032 31.4196 18.904C31.4516 18.84 31.5156 18.664 31.6116 18.376C31.7396 18.088 31.8036 17.784 31.8036 17.464C31.8676 17.176 31.9636 16.856 32.0916 16.504C32.2516 16.12 32.3316 15.896 32.3316 15.832C32.4916 15.704 33.0036 14.44 33.8676 12.04C33.8676 11.912 34.2196 11.064 34.9236 9.496C35.9476 7.096 36.5876 5.56 36.8436 4.888C37.0036 4.632 37.2756 4.168 37.6596 3.496C37.7236 3.4 37.8516 3.192 38.0436 2.872C38.2676 2.52 38.4436 2.312 38.5716 2.248C38.7956 2.184 39.2756 2.344 40.0116 2.728C40.7796 3.112 41.2756 3.48 41.4996 3.832C41.5316 3.896 41.5636 3.976 41.5956 4.072C41.6596 4.136 41.6916 4.216 41.6916 4.312C41.6916 4.472 41.5956 4.76 41.4036 5.176C41.2436 5.592 41.0516 6.024 40.8276 6.472C40.6356 6.888 40.4916 7.208 40.3956 7.432L39.0036 10.312C37.6596 13.256 36.5076 16.12 35.5476 18.904C35.2596 19.8 35.0036 20.52 34.7796 21.064L34.5396 22.12L35.7876 20.728C36.3636 20.152 37.0836 19.56 37.9476 18.952C38.3316 18.696 38.8916 18.408 39.6276 18.088C40.3636 17.768 40.8756 17.576 41.1636 17.512C42.1876 17.256 43.0676 17.128 43.8036 17.128C44.9876 17.128 46.0756 17.976 47.0676 19.672C47.3556 20.184 47.4996 20.84 47.4996 21.64C47.4996 22.216 47.4196 22.792 47.2596 23.368C47.0996 23.944 46.8916 24.456 46.6356 24.904C46.4756 25.032 46.3156 25.208 46.1556 25.432C45.9956 25.624 45.9156 25.784 45.9156 25.912C45.8836 26.104 45.6116 26.536 45.0996 27.208C44.5876 27.88 44.0276 28.552 43.4196 29.224C42.5876 30.088 41.4836 30.952 40.1076 31.816C38.7636 32.68 37.6436 33.272 36.7476 33.592C36.5556 33.624 36.1876 33.688 35.6436 33.784C35.1316 33.848 34.7636 33.912 34.5396 33.976Z" stroke="#FFE924" stroke-width="2" mask="url(#path-2-outside-1)"/>
<path d="M52.9398 33.928C52.5558 33.928 52.2518 33.864 52.0278 33.736C51.8038 33.608 51.4838 33.368 51.0678 33.016C50.4278 32.344 49.9318 31.656 49.5798 30.952C49.2278 30.216 49.0998 29.576 49.1958 29.032C49.2918 28.808 49.3238 28.584 49.2918 28.36C49.2918 28.136 49.2918 27.992 49.2918 27.928C49.1638 27.8 49.0998 27.72 49.0998 27.688C49.0998 27.624 49.1318 27.576 49.1958 27.544C49.2598 27.48 49.3078 27.416 49.3398 27.352C49.5318 27.352 49.5957 27.176 49.5317 26.824C49.4677 26.568 49.5798 26.008 49.8678 25.144C50.1558 24.28 50.5238 23.48 50.9718 22.744C51.3238 22.168 51.8358 21.448 52.5078 20.584C53.2118 19.72 53.8358 19.064 54.3798 18.616C55.9798 17.24 57.4198 16.408 58.6998 16.12C59.3398 15.96 59.9638 15.88 60.5718 15.88C61.4998 15.88 62.2198 16.136 62.7318 16.648C63.4358 16.936 63.9478 17.352 64.2677 17.896C64.5878 18.44 64.7958 19.16 64.8918 20.056C64.9237 20.248 64.9398 20.568 64.9398 21.016C64.9398 23.384 64.0438 25.848 62.2518 28.408C61.5158 29.464 60.7798 30.312 60.0438 30.952C59.3078 31.592 58.4118 32.232 57.3558 32.872C56.7798 33.256 56.1718 33.512 55.5318 33.64C54.8918 33.768 54.0278 33.864 52.9398 33.928ZM57.8358 28.072C58.4438 27.528 58.8758 26.984 59.1318 26.44C59.4198 25.864 59.8198 24.872 60.3318 23.464C60.5238 23.176 60.6198 22.6 60.6198 21.736C60.6198 20.968 60.5078 20.536 60.2838 20.44C60.1238 20.312 59.9318 20.248 59.7078 20.248C59.4198 20.248 58.9558 20.472 58.3158 20.92C57.1958 21.88 56.2518 22.888 55.4838 23.944C54.7478 24.968 54.2358 26.152 53.9478 27.496C53.9158 27.624 53.8998 27.816 53.8998 28.072C53.8998 29.16 54.2838 29.704 55.0518 29.704C55.7878 29.704 56.7158 29.16 57.8358 28.072Z" stroke="#FFE924" stroke-width="2" mask="url(#path-2-outside-1)"/>
<path d="M78.7304 34.552C78.5064 34.68 78.2024 34.632 77.8184 34.408C77.4664 34.184 77.1144 33.848 76.7624 33.4C76.5064 32.984 76.3304 32.584 76.2344 32.2C76.1384 31.784 76.0904 31.192 76.0904 30.424L76.1384 29.32C76.1384 29.032 76.0904 28.888 75.9944 28.888C75.8984 28.888 75.6744 29.048 75.3224 29.368C75.0024 29.656 74.5864 30.04 74.0744 30.52C73.1144 31.448 72.2984 32.168 71.6264 32.68C70.9864 33.16 70.4584 33.384 70.0424 33.352C69.6904 33.352 69.1944 33.048 68.5544 32.44C67.9144 31.8 67.4824 31.192 67.2584 30.616C67.1624 30.232 67.1144 29.8 67.1144 29.32C67.1144 27.848 67.4344 26.056 68.0744 23.944C68.7144 21.832 69.4664 20.008 70.3304 18.472C71.1944 16.904 71.9144 16.152 72.4904 16.216C73.0024 16.28 73.4504 16.536 73.8344 16.984C74.2504 17.4 74.5864 17.912 74.8424 18.52C74.9384 18.712 74.9864 18.872 74.9864 19C74.9864 19.224 74.8584 19.448 74.6024 19.672C74.1224 20.312 73.5144 21.368 72.7784 22.84C72.0424 24.28 71.4504 25.608 71.0024 26.824C70.5544 28.008 70.4424 28.6 70.6664 28.6C71.1144 28.6 71.5144 28.488 71.8664 28.264C72.2504 28.04 72.7464 27.64 73.3544 27.064C74.5064 25.912 75.6264 24.44 76.7144 22.648C78.0584 20.504 78.7944 19.256 78.9224 18.904L79.4504 17.944C79.7704 17.304 80.0104 16.888 80.1704 16.696C80.3304 16.472 80.5224 16.328 80.7464 16.264H81.8504C82.0424 16.296 82.2664 16.44 82.5224 16.696C82.8104 16.824 83.0824 17 83.3384 17.224C83.5944 17.448 83.7224 17.64 83.7224 17.8L82.9544 19.576L82.5224 20.584C81.6584 22.504 81.0024 24.04 80.5544 25.192C80.1064 26.312 79.7704 27.48 79.5464 28.696C79.5144 28.856 79.4984 29.128 79.4984 29.512C79.4984 30.472 79.5944 31.144 79.7864 31.528C80.0744 32.104 80.3624 32.52 80.6504 32.776C80.9064 32.968 80.9064 33.208 80.6504 33.496C80.3944 33.752 80.0264 33.992 79.5464 34.216C79.0984 34.44 78.8264 34.552 78.7304 34.552Z" stroke="#FFE924" stroke-width="2" mask="url(#path-2-outside-1)"/>
<path d="M91.072 34.552C90.368 34.36 89.456 33.768 88.336 32.776C87.792 32.072 87.472 31.448 87.376 30.904C87.28 30.328 87.232 29.208 87.232 27.544C87.232 26.776 87.616 24.856 88.384 21.784C88.416 21.656 88.528 21.224 88.72 20.488C88.816 20.136 88.688 19.912 88.336 19.816C87.984 19.72 87.488 19.672 86.848 19.672C86.304 19.672 85.984 19.64 85.888 19.576C85.792 19.544 85.728 19.4 85.696 19.144C85.696 18.888 85.696 18.712 85.696 18.616C85.696 18.52 85.616 18.424 85.456 18.328C85.328 18.232 85.232 18.136 85.168 18.04C85.072 17.912 85.152 17.672 85.408 17.32C85.664 16.968 85.952 16.76 86.272 16.696C86.464 16.664 86.88 16.616 87.52 16.552C88.16 16.488 88.768 16.36 89.344 16.168C89.952 15.976 90.4 15.704 90.688 15.352C91.104 14.264 91.584 13.112 92.128 11.896C92.704 10.68 93.104 9.96 93.328 9.736C93.84 9.48 94.304 9.352 94.72 9.352C95.424 9.352 95.968 9.64 96.352 10.216C96.448 10.344 96.56 10.472 96.688 10.6C96.816 10.728 96.88 10.872 96.88 11.032C96.88 11.256 96.768 11.608 96.544 12.088C96.352 12.568 95.952 13.352 95.344 14.44L94.72 15.64C94.816 15.672 95.04 15.688 95.392 15.688C95.744 15.688 96.032 15.672 96.256 15.64C96.96 15.512 97.504 15.448 97.888 15.448C98.176 15.448 98.384 15.464 98.512 15.496C99.856 15.496 100.592 16.232 100.72 17.704C100.784 18.088 100.64 18.408 100.288 18.664C99.968 18.888 99.392 19 98.56 19C95.264 19.128 93.6 19.272 93.568 19.432C93.408 19.528 93.152 20.024 92.8 20.92C92.448 21.816 92.16 22.664 91.936 23.464C91.552 25.128 91.36 26.696 91.36 28.168C91.36 29.576 91.568 30.488 91.984 30.904C92.112 31.032 92.288 31.096 92.512 31.096C93.088 31.096 93.904 30.664 94.96 29.8C95.312 29.48 95.696 29.32 96.112 29.32C96.464 29.32 96.736 29.448 96.928 29.704C97.152 29.96 97.264 30.296 97.264 30.712C97.264 31.192 97.104 31.656 96.784 32.104C96.304 32.84 95.584 33.448 94.624 33.928C93.664 34.408 92.752 34.648 91.888 34.648C91.504 34.648 91.232 34.616 91.072 34.552Z" stroke="#FFE924" stroke-width="2" mask="url(#path-2-outside-1)"/>
<defs>
<linearGradient id="paint0_linear" x1="51.0158" y1="15.2906" x2="50.4104" y2="37.8773" gradientUnits="userSpaceOnUse">
<stop stop-color="#FF86B1"/>
<stop offset="0.453125" stop-color="#FF2473"/>
<stop offset="1" stop-color="#FFE924"/>
</linearGradient>
<linearGradient id="paint1_linear" x1="51.0158" y1="15.2906" x2="50.4104" y2="37.8773" gradientUnits="userSpaceOnUse">
<stop stop-color="#FF86B1"/>
<stop offset="0.453125" stop-color="#FF2473"/>
<stop offset="1" stop-color="#FFE924"/>
</linearGradient>
<linearGradient id="paint2_linear" x1="51.0158" y1="15.2906" x2="50.4104" y2="37.8773" gradientUnits="userSpaceOnUse">
<stop stop-color="#FF86B1"/>
<stop offset="0.453125" stop-color="#FF2473"/>
<stop offset="1" stop-color="#FFE924"/>
</linearGradient>
<linearGradient id="paint3_linear" x1="51.0158" y1="15.2906" x2="50.4104" y2="37.8773" gradientUnits="userSpaceOnUse">
<stop stop-color="#FF86B1"/>
<stop offset="0.453125" stop-color="#FF2473"/>
<stop offset="1" stop-color="#FFE924"/>
</linearGradient>
<linearGradient id="paint4_linear" x1="51.0158" y1="15.2906" x2="50.4104" y2="37.8773" gradientUnits="userSpaceOnUse">
<stop stop-color="#FF86B1"/>
<stop offset="0.453125" stop-color="#FF2473"/>
<stop offset="1" stop-color="#FFE924"/>
</linearGradient>
</defs>
</svg>
