<svg width="19" height="16" viewBox="0 0 19 16" fill="none" xmlns="http://www.w3.org/2000/svg">
<path fill-rule="evenodd" clip-rule="evenodd" d="M17.4613 0.849631C17.5024 1.35781 17.1187 1.80268 16.6044 1.84327L3.3015 2.89308C2.49223 2.95695 1.86843 3.62449 1.86843 4.42666V13.8462C1.86843 14.0161 2.00786 14.1539 2.17984 14.1539H15.9071C16.0791 14.1539 16.2185 14.0161 16.2185 13.8462V6.15387C16.2185 5.98337 16.0791 5.84618 15.9077 5.84618H3.45088C2.93493 5.84618 2.51667 5.43291 2.51667 4.92311C2.51667 4.41331 2.93493 4.00004 3.45088 4.00004H15.9077C17.1122 4.00004 18.087 4.96492 18.087 6.15387V13.8462C18.087 15.0357 17.111 16 15.9071 16H2.17984C0.975945 16 0 15.0357 0 13.8462V4.42666C0 2.66189 1.37234 1.1933 3.15274 1.0528L16.4557 0.00297794C16.97 -0.03761 17.4202 0.341449 17.4613 0.849631Z" fill="url(#paint0_linear)"/>
<path fill-rule="evenodd" clip-rule="evenodd" d="M12.0664 9.31031V10.5517C12.0664 11.2373 12.6222 11.793 13.3078 11.793H16.7215C17.4071 11.793 17.9629 11.2373 17.9629 10.5517V9.31031C17.9629 8.62472 17.4071 8.06894 16.7215 8.06894H13.3078C12.6222 8.06894 12.0664 8.62472 12.0664 9.31031ZM13.9284 10.5517C14.2712 10.5517 14.549 10.2738 14.549 9.93097C14.549 9.58818 14.2712 9.31029 13.9284 9.31029C13.5856 9.31029 13.3077 9.58818 13.3077 9.93097C13.3077 10.2738 13.5856 10.5517 13.9284 10.5517Z" fill="url(#paint1_linear)"/>
<defs>
<linearGradient id="paint0_linear" x1="9.0704" y1="6.32608" x2="8.41852" y2="16.2891" gradientUnits="userSpaceOnUse">
<stop stop-color="#FF86B1"/>
<stop offset="0.453125" stop-color="#FF2473"/>
<stop offset="1" stop-color="#FFE924"/>
</linearGradient>
<linearGradient id="paint1_linear" x1="15.0234" y1="9.54138" x2="14.9149" y2="11.8652" gradientUnits="userSpaceOnUse">
<stop stop-color="#FF86B1"/>
<stop offset="0.453125" stop-color="#FF2473"/>
<stop offset="1" stop-color="#FFE924"/>
</linearGradient>
</defs>
</svg>
