<svg width="88" height="52" viewBox="0 0 88 52" fill="none" xmlns="http://www.w3.org/2000/svg">
<path d="M18.5542 22.8984V8.30859C18.5542 8.00391 18.6597 7.74219 18.8706 7.52344C19.0815 7.30469 19.3394 7.19531 19.644 7.19531H23.0894C23.3628 7.19531 23.6519 7.30469 23.9565 7.52344C24.2612 7.74219 24.5112 8.00391 24.7065 8.30859L31.7847 19.1953V8.28516C31.7847 7.98047 31.8901 7.72266 32.1011 7.51172C32.3198 7.30078 32.5815 7.19531 32.8862 7.19531H34.9019C35.2065 7.19531 35.4644 7.30078 35.6753 7.51172C35.894 7.72266 36.0034 7.98828 36.0034 8.30859V22.8984C36.0034 23.2031 35.894 23.4648 35.6753 23.6836C35.4644 23.8945 35.2065 24 34.9019 24H31.0112C30.7065 24 30.394 23.8945 30.0737 23.6836C29.7534 23.4648 29.4995 23.2031 29.312 22.8984L22.8315 12.8438V22.8984C22.8315 23.2031 22.7222 23.4648 22.5034 23.6836C22.2925 23.8945 22.0347 24 21.73 24H19.6675C19.3628 24 19.1011 23.8945 18.8823 23.6836C18.6636 23.4648 18.5542 23.2031 18.5542 22.8984ZM39.3667 22.875V8.28516C39.3667 7.98047 39.4761 7.72266 39.6948 7.51172C39.9136 7.30078 40.1753 7.19531 40.48 7.19531H53.9917C54.2964 7.19531 54.5542 7.30469 54.7651 7.52344C54.9839 7.74219 55.0933 8.00391 55.0933 8.30859V9.41016C55.0933 9.71484 54.9839 9.97656 54.7651 10.1953C54.5542 10.4062 54.2964 10.5117 53.9917 10.5117H43.7847V14.6367H52.0933C52.3979 14.6367 52.6558 14.7461 52.8667 14.9648C53.0854 15.1836 53.1948 15.4414 53.1948 15.7383V16.8516C53.1948 17.1562 53.0854 17.418 52.8667 17.6367C52.6558 17.8477 52.3979 17.9531 52.0933 17.9531H43.7847V22.875C43.7847 23.1953 43.6753 23.4648 43.4565 23.6836C43.2456 23.8945 42.9878 24 42.6831 24H40.48C40.1753 24 39.9136 23.8945 39.6948 23.6836C39.4761 23.4648 39.3667 23.1953 39.3667 22.875ZM55.5737 9.41016V8.30859C55.5737 7.98828 55.6792 7.72266 55.8901 7.51172C56.1011 7.30078 56.3667 7.19531 56.687 7.19531H71.5581C71.8784 7.19531 72.144 7.30078 72.355 7.51172C72.5659 7.72266 72.6714 7.98828 72.6714 8.30859V9.41016C72.6714 9.73047 72.5659 9.99609 72.355 10.207C72.144 10.4102 71.8784 10.5117 71.5581 10.5117H66.3315V22.9219C66.3315 23.2266 66.2222 23.4844 66.0034 23.6953C65.7925 23.8984 65.5347 24 65.23 24H63.0151C62.7104 24 62.4487 23.8984 62.23 23.6953C62.019 23.4844 61.9136 23.2266 61.9136 22.9219V10.5117H56.687C56.3667 10.5117 56.1011 10.4102 55.8901 10.207C55.6792 9.99609 55.5737 9.73047 55.5737 9.41016Z" fill="#05F5BC"/>
<path d="M16.7692 35.1767C16.7221 35.2414 16.6993 35.3217 16.7007 35.4177C16.7021 35.5137 16.7349 35.5692 16.7991 35.5843C16.7685 35.6808 16.7151 35.8576 16.6388 36.1147C16.5626 36.3718 16.4786 36.6451 16.3868 36.9345C16.3472 37.5111 16.1656 38.2258 15.8421 39.0786C15.5342 39.9152 15.24 40.5836 14.9593 41.0838C14.8793 41.0849 14.8155 41.1019 14.768 41.1346C14.7202 41.1513 14.7284 41.1671 14.7927 41.1822C14.7938 41.2622 14.7081 41.4155 14.5354 41.642C14.4878 41.6747 14.3856 41.7962 14.2287 42.0065C14.0875 42.2006 13.9852 42.3221 13.9219 42.371C13.9076 42.4833 13.861 42.58 13.7822 42.6611C13.7031 42.7263 13.6316 42.7593 13.5676 42.7603C13.5676 42.7603 13.5517 42.7685 13.52 42.785C13.504 42.7852 13.4963 42.8093 13.497 42.8573C13.2151 43.2775 12.6475 43.8538 11.7941 44.5864C10.9569 45.3347 10.2441 45.8331 9.6557 46.0818C9.49735 46.1961 9.30689 46.3029 9.08432 46.4021C8.87774 46.5012 8.73469 46.5673 8.65517 46.6004C8.54458 46.6981 7.94605 46.8028 6.85957 46.9147C6.69982 46.933 6.52407 46.9516 6.33232 46.9704C6.14058 46.9892 5.94895 47.016 5.75744 47.0508C5.66168 47.0682 5.50181 47.0785 5.27784 47.0818C4.76589 47.0893 4.09245 46.9951 3.2575 46.7993C3.04858 46.7383 2.89555 46.6686 2.79839 46.59C2.70123 46.5114 2.58749 46.393 2.45717 46.2349C2.34307 46.0926 2.25345 45.9819 2.18829 45.9028C1.97587 45.6019 1.86685 45.2595 1.86124 44.8755C1.85727 44.6035 1.90999 44.3787 2.01941 44.2011C2.14459 44.0073 2.33482 43.8845 2.59009 43.8327L2.66208 43.8317C2.72608 43.8307 2.85453 43.8609 3.04744 43.9221C3.04067 43.4581 3.09047 43.0333 3.19685 42.6477C3.33125 41.9897 3.75863 40.5753 4.479 38.4046L4.75505 37.5844C4.86306 37.3108 5.01557 36.7966 5.21256 36.0416C5.37989 35.4471 5.56299 34.8363 5.76185 34.2094C5.97672 33.5822 6.13097 33.1879 6.22463 33.0265C6.27075 32.8978 6.31617 32.7211 6.3609 32.4964C6.58895 31.677 6.81864 30.9696 7.04997 30.3742L7.20638 29.5798L6.94066 29.4636C6.79737 29.5137 6.66974 29.5396 6.55775 29.5413C6.47776 29.5424 6.38942 29.5197 6.29273 29.4731C6.14944 29.5232 5.9483 29.4461 5.68928 29.2419C5.44627 29.0374 5.3076 28.8554 5.27326 28.6959C5.24057 28.6484 5.21552 28.5768 5.19812 28.481C5.19671 28.385 5.19578 28.321 5.19531 28.289C5.20967 28.1768 5.3999 28.054 5.76599 27.9206C6.13185 27.7713 6.58605 27.6446 7.12859 27.5407C7.67113 27.4368 8.19037 27.3812 8.68632 27.3739C8.91029 27.3707 9.07839 27.3762 9.19061 27.3906C9.59104 27.4167 10.0884 27.5055 10.6827 27.6568C11.2767 27.7921 11.815 27.9443 12.2975 28.1133C12.8283 28.2975 13.3931 28.6253 13.992 29.0966C14.607 29.5677 15.1511 30.1198 15.6244 30.7529C16.1137 31.3859 16.4433 32.0371 16.6131 32.7067C16.6641 32.914 16.7163 33.2012 16.7697 33.5685C16.823 33.9358 16.8518 34.2634 16.856 34.5514C16.8609 34.8873 16.832 35.0958 16.7692 35.1767ZM14.3661 36.6279C14.5003 35.9539 14.5631 35.3289 14.5547 34.753C14.5307 33.1052 13.9193 31.786 12.7207 30.7954C12.3806 30.5123 11.8241 30.2084 11.0512 29.8836C10.2944 29.5587 9.86023 29.413 9.74871 29.4466C9.66895 29.4638 9.46752 29.9148 9.14441 30.7996C8.8373 31.6842 8.50759 32.6651 8.15529 33.7424L7.11958 36.7818C7.05932 37.0387 6.99084 37.2798 6.91412 37.5049C6.8374 37.73 6.77633 37.931 6.7309 38.1076C6.53157 38.7026 6.43249 39.0401 6.43366 39.1201C5.98023 39.8468 5.65403 41.0677 5.45506 42.7828C5.42446 42.8792 5.34185 43.2485 5.20721 43.8905C5.10294 44.4201 5.02669 44.6772 4.97846 44.6619L4.95762 44.8783C5.24745 45.002 5.52813 45.0459 5.79963 45.01C5.89539 44.9926 6.02314 44.9747 6.18289 44.9564C6.35863 44.9378 6.4865 44.9279 6.5665 44.9268C7.04598 44.8878 7.39736 44.8426 7.62063 44.7914C7.86014 44.7559 8.05895 44.6729 8.21706 44.5426C8.91397 44.0524 9.47595 43.6361 9.903 43.2939C10.3458 42.9353 10.6145 42.7074 10.7091 42.61C10.7399 42.5295 10.9065 42.4311 11.2088 42.3147L11.8706 41.6089C12.2642 41.1711 12.5165 40.9114 12.6273 40.8298C12.6417 40.7176 12.664 40.6052 12.6944 40.4928C12.7405 40.3641 12.7631 40.2678 12.7622 40.2038C12.9511 39.993 13.2318 39.4928 13.6043 38.7033C13.9766 37.8978 14.2305 37.206 14.3661 36.6279ZM17.6856 43.8282C17.6362 43.7329 17.4983 43.6069 17.272 43.4502C17.0457 43.2935 16.9323 43.1992 16.9318 43.1672C16.9309 43.1032 16.8896 43.0158 16.808 42.9049C16.7421 42.7779 16.6765 42.6668 16.6111 42.5718C16.4812 42.4457 16.5632 42.0284 16.8568 41.3201C17.1505 40.6117 17.5463 39.7738 18.0443 38.8065C18.1388 38.7091 18.2564 38.5393 18.3969 38.2972C18.5533 38.0549 18.6553 37.9174 18.7029 37.8847C18.7019 37.8207 18.7251 37.7644 18.7724 37.7157C18.8195 37.651 18.875 37.6182 18.939 37.6173L19.1253 37.2305C19.1872 37.0856 19.4942 36.737 20.0462 36.1849C20.5982 35.6328 21.0327 35.2584 21.3499 35.0618C21.6508 34.8493 21.9773 34.7406 22.3292 34.7354C22.7132 34.7298 23.0428 34.837 23.318 35.057L23.974 35.5995C24.4598 35.9924 24.7352 36.2204 24.8001 36.2835L25.6996 37.0624L25.3092 38.2683C25.1715 38.7023 25.1055 39.1113 25.1111 39.4953C25.12 40.1032 25.2962 40.6687 25.6399 41.1918C25.7225 41.3666 25.8284 41.501 25.9578 41.5951C26.1032 41.689 26.2881 41.7503 26.5126 41.7791C26.8655 41.8379 27.044 42.0113 27.0482 42.2993C27.0534 42.6513 26.9932 42.9162 26.8678 43.094C26.7424 43.2719 26.5921 43.3861 26.4168 43.4366C26.1613 43.4724 25.9855 43.4909 25.8895 43.4923C25.4256 43.4991 24.9999 43.3853 24.6124 43.151C24.225 42.9166 23.883 42.5136 23.5866 41.9418C23.5213 41.8468 23.4307 41.6721 23.315 41.4177C23.2152 41.1632 23.1567 40.988 23.1393 40.8922C23.0296 41.0539 22.8487 41.2645 22.5964 41.5242C20.9729 43.2121 19.6492 44.0636 18.6253 44.0785C18.2734 44.0837 17.9601 44.0002 17.6856 43.8282ZM18.9763 41.8172C19.2328 41.8454 19.7245 41.5502 20.4516 40.9315C20.5306 40.8664 20.6175 40.7931 20.7124 40.7117C20.807 40.6143 20.9095 40.5168 21.0201 40.4192C21.4627 40.0446 21.8022 39.7357 22.0387 39.4922C22.2909 39.2325 22.5425 38.9248 22.7933 38.5691L23.3086 37.6974C23.1435 37.3478 22.9961 37.1179 22.8665 37.0078C22.7366 36.8817 22.6077 36.8196 22.4797 36.8214C22.1598 36.8261 21.764 37.1199 21.2925 37.7029C20.8207 38.2698 20.2573 39.1342 19.6022 40.2959C19.4304 40.5864 19.2909 40.8925 19.1835 41.2141C19.076 41.5197 19.0069 41.7207 18.9763 41.8172ZM36.0255 43.4883C35.0171 43.471 34.5049 42.9104 34.4888 41.8066C34.4843 41.5026 34.504 41.2063 34.5478 40.9176C34.5746 40.5652 34.587 40.317 34.5849 40.173L34.5832 40.053L34.5793 39.789C34.5266 39.4698 34.4203 39.3113 34.2603 39.3136C33.9724 39.3178 33.4405 39.6056 32.6648 40.177C31.9048 40.7322 31.1065 41.3999 30.2698 42.1802C30.0178 42.4559 29.8055 42.7151 29.6331 42.9576C29.4761 43.1679 29.358 43.2977 29.2787 43.3468C29.1994 43.396 29.0718 43.4219 28.8958 43.4244C28.6714 43.3957 28.4129 43.2315 28.1205 42.9317C27.8281 42.6319 27.6322 42.3628 27.5327 42.1242C27.5261 41.6762 27.5999 41.2511 27.7541 40.8488C27.908 40.4305 28.1403 39.9071 28.4512 39.2785C28.5882 38.7964 28.7651 38.3138 28.9821 37.8306C29.2139 37.2671 29.3757 36.8407 29.4675 36.5513C29.575 36.2457 29.6425 35.9327 29.6698 35.6123C29.6695 35.5963 29.6614 35.5884 29.6454 35.5886C29.6445 35.5246 29.6677 35.4683 29.715 35.4196C29.7623 35.3709 29.8179 35.3461 29.8819 35.3452C29.9132 35.2967 30.0088 35.2713 30.1688 35.269C30.5848 35.2629 30.9464 35.3696 31.2536 35.5892C31.5608 35.8087 31.7179 36.1504 31.7246 36.6144C31.7281 36.8544 31.6835 37.087 31.5908 37.3124C31.5139 37.5216 31.359 37.8759 31.1263 38.3753L30.87 38.9071C30.8234 39.0038 30.7536 39.1488 30.6604 39.3422C30.5669 39.5196 30.5206 39.6323 30.5213 39.6803C30.9173 39.4025 31.384 39.0356 31.9214 38.5797C32.7119 37.9281 33.3606 37.4226 33.8674 37.0631C34.3742 36.7037 34.7476 36.5222 34.9876 36.5187C35.1956 36.5157 35.4853 36.6314 35.8567 36.866C36.244 37.0844 36.471 37.2891 36.5378 37.4802C36.5394 37.5922 36.5259 37.7604 36.4972 37.9848C36.4844 38.209 36.4714 38.4092 36.4579 38.5854L36.4928 39.329C36.5107 39.4568 36.5215 39.6486 36.5252 39.9046C36.5327 40.4166 36.5059 40.777 36.445 40.9859C36.4612 41.0017 36.4776 41.0254 36.494 41.0572C36.5105 41.0889 36.5189 41.1128 36.5191 41.1288L36.4958 41.1772C36.5141 41.3369 36.6059 41.5916 36.771 41.9412C36.9361 42.2909 37.0189 42.4817 37.0194 42.5137C37.0219 42.6896 36.9049 42.8914 36.6682 43.1189C36.4472 43.3301 36.233 43.4533 36.0255 43.4883ZM40.9502 43.8004C40.4703 43.8074 40.1579 43.788 40.0133 43.7421C39.8683 43.6802 39.6905 43.5548 39.4797 43.3658C39.4301 43.2545 39.3239 43.1041 39.1611 42.9144C39.0143 42.7245 38.8922 42.5823 38.7948 42.4877C38.7442 42.3124 38.7172 42.1048 38.7137 41.8648C38.7076 41.4489 38.7565 40.9601 38.8603 40.3985C38.9801 39.8367 39.1246 39.3226 39.2938 38.8561C39.3559 38.7271 39.4022 38.6064 39.4325 38.494C39.4789 38.3813 39.5098 38.3088 39.5254 38.2766C39.5237 38.1646 39.7187 37.8177 40.1102 37.236C40.5175 36.6379 40.8395 36.2252 41.0762 35.9977C41.1864 35.8681 41.3524 35.7296 41.5742 35.5824C41.8121 35.4349 42.0186 35.3279 42.1936 35.2613C42.2414 35.2446 42.4323 35.1698 42.7664 35.0369C43.1165 34.9038 43.4355 34.8351 43.7235 34.8309C43.9795 34.8272 44.2282 34.8795 44.4699 34.988C44.7272 35.0803 44.9375 35.2372 45.1008 35.4589C45.5228 35.8687 45.7388 36.4096 45.7486 37.0816C45.7504 37.2096 45.7366 37.3538 45.7069 37.5142C45.6316 37.8354 45.4675 38.1018 45.2145 38.3135C44.9773 38.509 44.7228 38.6087 44.4508 38.6127C44.1788 38.6167 43.9453 38.5161 43.7503 38.3109C43.684 38.1518 43.6505 38.0483 43.6498 38.0003C43.6491 37.9523 43.6791 37.8159 43.7398 37.591C43.7996 37.3021 43.8289 37.1176 43.8277 37.0376C43.8247 36.8296 43.7512 36.7267 43.6072 36.7288C43.4152 36.7316 43.2639 36.7818 43.1533 36.8795C43.0428 36.9771 42.8378 37.1881 42.5385 37.5125C42.3338 37.7395 42.0906 38.0711 41.809 38.5073C41.5431 38.9272 41.333 39.3303 41.1786 39.7166C41.0409 40.1507 40.9415 40.4642 40.8803 40.6571C40.8349 40.8338 40.8124 40.9381 40.8129 40.9701C40.8138 41.0341 40.8067 41.0982 40.7917 41.1624C40.7764 41.2106 40.7692 41.2668 40.7701 41.3307C40.7718 41.4427 40.797 41.5304 40.846 41.5937C40.8949 41.657 40.9838 41.7197 41.1127 41.7818C41.145 41.7973 41.2014 41.8285 41.2821 41.8753C41.3628 41.9222 41.4432 41.945 41.5232 41.9438C41.6191 41.9424 41.7545 41.9004 41.9294 41.8179C42.1042 41.7353 42.2155 41.6857 42.2632 41.669C42.4698 41.5699 42.7627 41.3576 43.142 41.0321L43.7116 40.5917C43.8225 40.5101 43.9175 40.4447 43.9968 40.3955C44.0919 40.3301 44.1633 40.2891 44.211 40.2724C44.2586 40.2397 44.2825 40.2393 44.283 40.2713C44.284 40.3353 44.3084 40.367 44.3564 40.3663C44.4044 40.3656 44.4599 40.3327 44.523 40.2678C44.5856 40.1709 44.6969 40.1213 44.8569 40.1189C44.9848 40.1171 45.1134 40.1552 45.2426 40.2333C45.3875 40.2952 45.4603 40.3501 45.461 40.3981L45.4387 40.5185C45.4399 40.5985 45.4811 40.6779 45.5622 40.7567C45.5632 40.8207 45.5405 40.909 45.4941 41.0217C45.4635 41.1182 45.4167 41.1989 45.3536 41.2638C45.1972 41.5061 45.0168 41.7568 44.8126 42.0158C44.6243 42.2745 44.4909 42.4525 44.4123 42.5497L44.3883 42.55C44.3083 42.5512 44.1974 42.6248 44.0555 42.7709C43.8188 42.9984 43.6125 43.1134 43.4365 43.116C43.373 43.1489 43.3015 43.19 43.2223 43.2391C43.1427 43.2723 43.1033 43.3129 43.104 43.3609C42.836 43.6368 42.1181 43.7833 40.9502 43.8004ZM49.9188 44.2934C48.095 44.3201 47.1679 43.2935 47.1375 41.2137C47.1265 40.4618 47.2981 39.6112 47.6523 38.6619C48.0222 37.6964 48.4817 36.8336 49.0306 36.0735C49.5954 35.2972 50.1558 34.7769 50.712 34.5128C51.0137 34.3484 51.3644 34.2632 51.7644 34.2574C52.4843 34.2469 53.1106 34.3977 53.6432 34.71C54.1916 35.006 54.4721 35.586 54.4847 36.4499C54.492 36.9458 54.3319 37.4922 54.0046 38.0891C53.6773 38.6859 53.2607 39.1961 52.7548 39.6195C52.2647 40.0267 51.7797 40.2338 51.2998 40.2408C50.5798 40.2513 49.9685 40.0282 49.4658 39.5715C49.2018 40.1195 49.0734 40.6414 49.0806 41.1373C49.0865 41.5373 49.139 41.8486 49.2383 42.0711C49.3373 42.2777 49.5628 42.3784 49.9148 42.3733C50.2507 42.3684 50.522 42.3164 50.7286 42.2174C50.9351 42.1183 51.1255 42.0036 51.2996 41.873C51.4737 41.7424 51.6083 41.6445 51.7033 41.5791L51.7986 41.5297L51.7746 41.53C52.0603 41.3658 52.2665 41.2428 52.3933 41.1609C52.5359 41.0629 52.6549 40.9971 52.7505 40.9637C52.9904 40.9602 53.2155 41.0289 53.4256 41.1699C53.6356 41.3108 53.7422 41.4853 53.7452 41.6933C53.7476 41.8532 53.6074 42.1193 53.3248 42.4915C53.042 42.8476 52.7497 43.0999 52.4478 43.2484L52.1619 43.3966L52.1859 43.3962C52.0448 43.5903 51.9022 43.6884 51.7582 43.6905L51.5662 43.6933C51.5041 43.8222 51.29 43.9534 50.9239 44.0867C50.5738 44.2199 50.2388 44.2888 49.9188 44.2934ZM51.0822 38.4918C51.5301 38.4853 51.8953 38.2879 52.1777 37.8997C52.476 37.5113 52.6224 37.1252 52.6168 36.7412C52.6142 36.5652 52.5639 36.4059 52.4658 36.2634C52.3837 36.1205 52.2706 36.0502 52.1267 36.0523C51.8547 36.0563 51.5526 36.1887 51.2204 36.4496C50.8881 36.7105 50.5971 37.0507 50.3472 37.4704L50.0426 37.9789C50.1061 37.946 50.1539 37.9293 50.1859 37.9288C50.3139 37.927 50.4107 37.9816 50.4763 38.0926C50.5419 38.2037 50.6153 38.2986 50.6965 38.3774C50.7776 38.4563 50.9062 38.4944 51.0822 38.4918ZM63.4155 44.5043C62.7847 44.0495 62.2987 43.6405 61.9574 43.2775C61.616 42.9144 61.4349 42.565 61.414 42.2293C61.3968 42.1495 61.3867 42.0057 61.3837 41.7977C61.3772 41.3497 61.409 40.7892 61.4791 40.1161C61.5493 39.443 61.6215 38.9059 61.6956 38.5048C61.7587 38.4398 61.7893 38.3434 61.7874 38.2154C61.8015 38.0872 61.8004 38.0072 61.7839 37.9754C61.7832 37.9274 61.8209 37.7669 61.8969 37.4937C62.0802 36.899 62.209 36.4011 62.2831 35.9999C62.6959 34.6818 63.1045 33.6277 63.509 32.8377C63.9135 32.0477 64.3667 31.305 64.8686 30.6096C65.9402 29.4738 67.0877 28.609 68.3111 28.015C68.9297 27.6379 69.3749 27.4474 69.6469 27.4434C69.6949 27.4427 69.7671 27.4577 69.8636 27.4883C71.8377 27.8915 73.0318 29.1222 73.4459 31.1804C73.6041 32.1541 73.6869 32.889 73.6941 33.385C73.7058 34.1849 73.5736 34.9949 73.2976 35.815C73.0215 36.6351 72.5165 37.6666 71.7826 38.9095C71.1614 40.1987 70.4495 41.3052 69.6469 42.229C68.8601 43.1366 68.062 43.8203 67.2526 44.2802C66.4592 44.7399 65.7106 44.9748 65.0066 44.9851C64.3827 44.9942 63.8523 44.8339 63.4155 44.5043ZM65.3121 42.8924C65.6954 42.8388 65.9903 42.7625 66.1969 42.6635C66.4194 42.5642 66.6411 42.401 66.8618 42.1737C67.0982 41.9302 67.476 41.5007 67.9951 40.885C68.6558 40.1073 69.1196 39.5404 69.3864 39.1845C69.653 38.8126 69.8943 38.353 70.1103 37.8058C70.3423 37.2583 70.5949 36.4706 70.8679 35.4425L71.0038 34.8884C71.0949 34.5511 71.1549 34.2781 71.1839 34.0697C71.2286 33.845 71.2491 33.6047 71.2453 33.3487L71.1992 31.8372C71.179 31.5495 71.1185 31.2384 71.0176 30.9038C70.9167 30.5692 70.8012 30.3309 70.6711 30.1888C70.541 30.0467 70.3633 29.9292 70.1379 29.8365C69.9283 29.7276 69.7115 29.6747 69.4875 29.678C69.3275 29.6804 69.1441 29.723 68.9373 29.8061C68.6352 29.9385 68.2163 30.2886 67.6805 30.8565C67.1446 31.4084 66.6648 31.9755 66.2412 32.5577C65.8337 33.1398 65.6313 33.5268 65.6341 33.7187C65.6344 33.7347 65.6271 33.7828 65.6122 33.8631C65.5974 33.9433 65.5665 34.0158 65.5194 34.0804C65.11 34.5345 64.6998 35.4846 64.2889 36.9307C63.894 38.3767 63.6724 39.636 63.624 40.7088C63.6148 41.173 63.6195 41.493 63.6381 41.6687C63.6726 41.8443 63.7635 42.0429 63.9108 42.2648C64.0254 42.4392 64.2278 42.6042 64.5181 42.76C64.8242 42.8995 65.0888 42.9437 65.3121 42.8924ZM79.352 46.2637C79.241 46.3293 79.0083 46.2847 78.654 46.1299C78.3159 45.9908 78.0411 45.7948 77.8293 45.5419C77.7319 45.4473 77.6665 45.3522 77.6331 45.2567C77.6 45.1772 77.5823 45.0654 77.5802 44.9214L77.6195 44.3208C77.696 44.0796 77.7313 43.7591 77.7254 43.3591C77.7236 43.2312 77.7737 42.8304 77.8759 42.1568C77.9778 41.4672 78.0586 40.97 78.1181 40.6651L78.1859 40.3761C78.3062 39.8463 78.395 39.3569 78.4525 38.908C78.5285 38.6349 78.5974 38.4179 78.659 38.257C78.7654 37.8714 78.8261 37.6465 78.8412 37.5822C78.4892 37.5874 77.9462 37.6593 77.2122 37.798C76.4939 37.9205 76.1111 38.0061 76.0638 38.0548C75.9685 38.1042 75.8597 38.3219 75.7373 38.7077C75.6309 39.0933 75.5338 39.5667 75.446 40.1281C75.2502 40.963 75.159 41.8445 75.1726 42.7724C75.1805 43.3163 75.2271 43.7637 75.3122 44.1145C75.3465 44.274 75.3642 44.3857 75.3651 44.4497C75.3696 44.7537 75.2935 45.0268 75.1371 45.2692C74.9968 45.5272 74.8312 45.6897 74.6401 45.7565C74.4324 45.7755 74.2147 45.6587 73.9869 45.406C73.7755 45.169 73.5946 44.8356 73.4443 44.4058C73.31 43.9757 73.2391 43.5047 73.2316 42.9927C73.2137 42.865 73.2028 42.6651 73.1988 42.3932C73.1804 41.1293 73.4824 39.3487 74.1049 37.0514C74.3172 36.2482 74.7015 35.1704 75.2578 33.8182C75.8141 32.4659 76.1554 31.7328 76.2818 31.619L76.3298 31.6183C76.3938 31.6173 76.4247 31.5449 76.4226 31.4009C76.4222 31.3689 76.4844 31.248 76.6093 31.0381C76.7341 30.8123 76.8508 30.5866 76.9595 30.3609C77.2729 29.9083 77.6981 29.4381 78.235 28.9502C78.7879 28.462 79.2552 28.1352 79.6368 27.9696C79.8754 27.8701 80.1147 27.8186 80.3547 27.8151C80.7546 27.8092 81.1406 27.9396 81.5125 28.2062C81.8842 28.4568 82.153 28.7809 82.3188 29.1785C82.476 28.9842 82.6811 28.7892 82.9343 28.5935C83.1872 28.3818 83.4246 28.2023 83.6465 28.055L84.1212 27.688C84.4706 27.5069 84.7568 27.3827 84.9799 27.3155C85.2029 27.2482 85.4824 27.2121 85.8184 27.2072C86.2823 27.2004 86.8225 27.4806 87.4388 28.0476C87.6663 28.2843 87.7966 28.4424 87.8298 28.522C87.8629 28.6015 87.8812 28.7532 87.8844 28.9772C87.8249 29.2821 87.5447 29.8223 87.044 30.5977C86.5593 31.3728 86.2451 31.7695 86.1013 31.7876C86.0535 31.8043 85.9897 31.8132 85.9097 31.8144C85.6697 31.8179 85.5468 31.6196 85.5409 31.2197C85.5395 31.1237 85.4821 31.0285 85.3688 30.9342C85.2714 30.8396 85.2064 30.7765 85.174 30.745C85.17 30.473 85.2228 30.2562 85.3325 30.0946C85.3791 29.9979 85.4016 29.8936 85.3999 29.7816C85.3983 29.6696 85.365 29.5821 85.3001 29.519C85.2349 29.44 85.1546 29.4171 85.0591 29.4505C84.9002 29.5329 84.6471 29.7286 84.2995 30.0377C83.9678 30.3306 83.8026 30.525 83.804 30.621C83.7885 30.6532 83.7418 30.7419 83.6639 30.8871C83.6018 31.016 83.5 31.1695 83.3586 31.3476C83.0765 31.7517 82.9361 32.0018 82.9375 32.0978C82.9405 32.3058 82.8941 32.4105 82.7981 32.4119C82.7825 32.4441 82.7439 32.5407 82.6823 32.7016C82.6364 32.8463 82.5667 33.0073 82.4733 33.1847C82.4117 33.3456 82.3341 33.5148 82.2407 33.6921C82.1471 33.8535 82.0687 33.9667 82.0056 34.0316L82.0296 34.0313C81.9833 34.144 81.8983 34.3532 81.7748 34.6591C81.651 34.9489 81.5895 35.1178 81.5902 35.1658C81.5911 35.2298 81.6876 35.2604 81.8795 35.2576C82.2635 35.252 82.7742 35.1565 83.4115 34.9712C83.6186 34.9042 83.7701 34.8699 83.8661 34.8685C83.9781 34.8669 84.1385 34.8966 84.3474 34.9575C84.4606 35.0359 84.5668 35.1863 84.666 35.4089C84.7653 35.6315 84.8326 35.8545 84.8678 36.078C84.9191 36.3013 84.9212 36.4453 84.8742 36.51C84.8591 36.5742 84.6844 36.6648 84.3501 36.7817C84.0317 36.8983 83.6971 36.9912 83.346 37.0604L82.4373 37.2897C81.5282 37.495 81.0741 37.6296 81.075 37.6936C81.011 37.6945 80.9555 37.7274 80.9085 37.792C80.8614 37.8567 80.8383 37.9211 80.8393 37.9851C80.8425 38.2091 80.813 38.3775 80.7506 38.4904C80.628 38.8603 80.4835 39.3744 80.3171 40.0329C80.1505 40.6754 80.0685 41.0847 80.071 41.2607C79.9454 41.4225 79.8856 41.7114 79.8917 42.1274C79.7983 42.3047 79.7532 42.5054 79.7565 42.7294C79.7579 42.8254 79.751 42.9055 79.736 42.9697C79.7371 43.0497 79.7239 43.2419 79.6964 43.5464C79.6688 43.8508 79.6569 44.131 79.6607 44.387L79.5988 45.084C79.5861 45.3082 79.5575 45.5406 79.513 45.7813C79.4845 46.0217 79.4309 46.1825 79.352 46.2637ZM77.0662 36.024C77.1304 36.039 77.4577 35.9863 78.048 35.8656C78.9256 35.6928 79.3804 35.6061 79.4124 35.6057L79.5525 35.3396C79.9511 34.1496 80.2978 33.2325 80.5924 32.5881L80.6372 32.3714C80.6368 32.3394 80.6674 32.243 80.729 32.0821C80.8064 31.9049 80.8441 31.7443 80.842 31.6004L81.0217 30.7576C81.097 30.4365 81.134 30.2279 81.1326 30.132C81.1312 30.036 81.0903 29.9726 81.0098 29.9417C80.9293 29.9109 80.7771 29.8971 80.5531 29.9004C80.4089 29.8865 80.2019 29.9535 79.932 30.1015C79.6619 30.2335 79.5277 30.3554 79.5293 30.4674L79.5307 30.5634C79.4505 30.5486 79.2378 30.7757 78.8926 31.2448C78.5472 31.6979 78.2339 32.1585 77.9527 32.6267C77.8287 32.9005 77.5588 33.5925 77.1429 34.7027C77.0191 34.9926 76.9265 35.2259 76.8651 35.4029L76.6816 35.9816L77.0662 36.024Z" fill="url(#paint0_linear)"/>
<defs>
<linearGradient id="paint0_linear" x1="41.7924" y1="32.8403" x2="41.5651" y2="51.5929" gradientUnits="userSpaceOnUse">
<stop stop-color="#FF86B1"/>
<stop offset="0.453125" stop-color="#FF2473"/>
<stop offset="1" stop-color="#FFE924"/>
</linearGradient>
</defs>
</svg>
